<?xml version="1.0" encoding="utf-8"?>
<!-- Generator: Adobe Illustrator 23.0.1, SVG Export Plug-In . SVG Version: 6.00 Build 0)  -->
<svg version="1.1" id="Layer_1" xmlns="http://www.w3.org/2000/svg" xmlns:xlink="http://www.w3.org/1999/xlink" x="0px" y="0px"
	 viewBox="0 0 180 180" style="enable-background:new 0 0 180 180;" xml:space="preserve">
<style type="text/css">
	.st0{fill:#474747;}
</style>
<path class="st0" d="M134.74,142.1c-0.67,4.79-0.69,9.04-1.92,12.91c-2.89,9.09-10.93,14.72-20.39,14.74
	c-29.65,0.05-59.3,0.06-88.94,0c-12.29-0.02-22.03-9.4-22.2-21.66c-0.22-15.65-0.21-31.32,0.01-46.97
	c0.11-8.05,4.19-14.19,11.27-18.88C3.04,72.37-1.09,60.95,2.46,47.56c2.46-9.29,7.99-16.38,16.48-20.98
	c18.91-10.24,36.93-1.72,48.83,23.69c0.75-10.76,4.13-19.68,11.12-26.99c6.99-7.31,15.65-11.19,25.64-11.99
	c15.47-1.24,30.95,8.51,37.42,23.35c7.8,17.89,3.31,33.22-14.71,50.21c1.69,2.63,3.67,5.12,4.97,7.93c1.21,2.62,1.7,5.58,2.68,9
	c6.08-4.11,11.95-8.07,17.82-12.05c3.72-2.52,7.42-5.07,11.14-7.6c6-4.08,12.05-2.03,14.23,4.98c0.58,1.86,0.67,3.92,0.67,5.9
	c0.05,21.15,0.13,42.31-0.09,63.46c-0.03,3.14-0.92,6.71-2.61,9.3c-3.08,4.73-7.39,4.81-11.7,1.14c-8.99-7.67-18-15.33-27.01-22.98
	C136.62,143.32,135.8,142.84,134.74,142.1z M67.77,159c14.15,0,28.31,0.03,42.46-0.01c8.72-0.03,13.18-4.5,13.2-13.22
	c0.04-13.49-0.38-26.99,0.13-40.46c0.41-10.78-5.64-15.36-15.09-15.23C96.98,90.23,85.49,90.11,74,90.11
	c-15.82,0-31.64-0.08-47.45,0.03c-10.19,0.07-14.62,4.64-14.63,14.67c-0.01,13.49-0.02,26.97,0,40.46
	c0.02,9.15,4.63,13.7,13.89,13.72C39.79,159.02,53.78,159,67.77,159z M106.53,79.4c15.36,0.09,28.08-12.66,28.34-28.4
	c0.24-15.2-12.9-28.75-28.02-28.88c-15.27-0.13-27.99,12.82-28.06,28.56C78.72,66.6,91,79.31,106.53,79.4z M34.43,79.32
	c12.23-0.01,22.45-10.25,22.56-22.62c0.11-12.23-10.2-22.87-22.27-22.99c-12.4-0.12-22.88,10.43-22.8,22.94
	C12,69.01,22.23,79.32,34.43,79.32z M167.86,90.43c-8.82,5.99-16.5,11.88-24.82,16.65c-7.05,4.03-10.09,8.98-9.13,17.18
	c0.47,4.05,1.14,7.06,4.49,9.75c8.69,6.98,17.06,14.36,25.58,21.56c1.06,0.89,2.22,1.66,3.88,2.88
	C167.86,135.56,167.86,113.53,167.86,90.43z M78.02,79.13c-3.54-6.9-6.9-13.45-9.84-19.19c-2.34,5.93-4.94,12.52-7.57,19.19
	C66.28,79.13,72.19,79.13,78.02,79.13z"/>
</svg>
