<?xml version="1.0" encoding="utf-8"?>
<!-- Generator: Adobe Illustrator 23.0.1, SVG Export Plug-In . SVG Version: 6.00 Build 0)  -->
<svg version="1.1" id="Layer_1" xmlns="http://www.w3.org/2000/svg" xmlns:xlink="http://www.w3.org/1999/xlink" x="0px" y="0px"
	 viewBox="0 0 180 178.99" style="enable-background:new 0 0 180 178.99;" xml:space="preserve">
<style type="text/css">
	.st0{fill:#474747;}
</style>
<path class="st0" d="M130.42,3.2c1.89,2.17,4.07,4.26,4.79,6.77c1.29,4.46-2.35,8.24-7.22,9.28c-1.59,0.34-3.6,0.95-4.45,2.13
	c-7.91,10.99-15.61,22.13-23.35,33.24c-0.25,0.36-0.29,0.87-0.68,2.16c2.03,0,3.71,0,5.4,0c10.94,0,21.87-0.04,32.81,0
	c9.57,0.04,14.95,5.33,14.97,14.76c0.04,30.52,0.05,61.04,0.02,91.56c-0.01,8.56-5.57,14.12-14.06,14.13
	c-30.52,0.02-61.04,0.02-91.56-0.02c-8.42-0.01-13.82-5.18-13.85-13.68c-0.11-30.84-0.13-61.68-0.02-92.52
	c0.04-9.14,5.32-14.14,14.44-14.21c10.93-0.08,21.87-0.02,32.81-0.01c1.75,0,3.5,0,5.15,0c0.17-0.8,0.39-1.21,0.27-1.39
	C77.92,43.87,69.94,32.35,61.9,20.87c-0.5-0.71-1.49-1.5-2.28-1.52c-5.12-0.18-8.49-2.6-9.31-7.64c-0.64-3.9,1.36-6.35,4.04-8.33
	c0.76-0.56,3.63-2.28,4.3-2.28c0.64,0,1.49,0.39,2.02,0.7c4.08,2.42,7.38,5.15,6.53,10.76c-0.3,1.96,0.1,4.5,1.18,6.11
	c6.53,9.71,13.35,19.23,20.07,28.81c1.35,1.93,2.74,3.82,4.51,6.29c8.86-12.68,17.24-24.63,25.56-36.62
	c0.51-0.73,1.02-1.96,0.75-2.65c-2.3-5.9,0.81-9.51,5.09-12.7c0.86-0.33,1.59-0.67,2.37-0.79C128.28,0.77,130.01,2.73,130.42,3.2z
	 M93.12,145.24c14.85,0,29.7-0.06,44.55,0.04c4.38,0.03,6.27-1.99,6.27-6.21c-0.01-22.19,0.03-44.38-0.04-66.58
	c-0.02-5.41-1.64-6.92-7.12-6.92c-29.05-0.03-58.09-0.03-87.14,0c-6.38,0.01-7.7,1.37-7.7,7.81c-0.02,21.54-0.01,43.08,0,64.62
	c0,5.97,1.18,7.2,7.12,7.22C63.75,145.26,78.44,145.24,93.12,145.24z M76.23,156.8c0,4.01,0,7.33,0,10.91c11.32,0,22.29,0,33.71,0
	c0-2.91,0.23-5.51-0.11-8.04c-0.14-1.05-1.52-2.73-2.36-2.75C97.11,156.73,86.75,156.8,76.23,156.8z M126.34,169.69
	c5.42,0.06,9.7-4.05,9.77-9.36c0.07-5.28-4.16-9.61-9.48-9.72c-5.13-0.1-9.8,4.36-9.86,9.43
	C116.69,165.26,121.04,169.64,126.34,169.69z M59.4,169.7c5.47-0.05,9.48-4.1,9.49-9.57c0.01-5.33-4.27-9.57-9.59-9.51
	c-5.29,0.05-9.54,4.35-9.53,9.64C49.76,165.59,54.02,169.75,59.4,169.7z"/>
<path class="st0" d="M128.28,140.11c-23.74,0-47.09,0-71,0c1.13-7.16,3.4-13.18,9.7-16.9c2.23-1.32,4.64-2.36,7.01-3.44
	c3.73-1.7,6.78-2.82,10.68,1.08c5.18,5.19,12.31,4.36,17.93-1.12c2.17-2.12,3.79-2.15,6.38-1.16c8.62,3.31,16.57,7.19,18.77,17.37
	C128.02,137.17,128.08,138.44,128.28,140.11z"/>
<path class="st0" d="M93.01,77.09c9.54-0.05,15.1,5.42,15.49,14.99c0.09,2.21,0.74,4.4,1.2,6.59c1.43,6.93-7.17,20.85-14.06,22.49
	c-1.67,0.4-3.59,0.41-5.27,0.04c-8.18-1.83-16.1-16.49-13.45-24.52c0.44-1.35,0.48-2.86,0.52-4.3
	C77.71,82.24,82.88,77.14,93.01,77.09z"/>
</svg>
