<?xml version="1.0" encoding="utf-8"?>
<!-- Generator: Adobe Illustrator 23.0.1, SVG Export Plug-In . SVG Version: 6.00 Build 0)  -->
<svg version="1.1" id="Layer_1" xmlns="http://www.w3.org/2000/svg" xmlns:xlink="http://www.w3.org/1999/xlink" x="0px" y="0px"
	 viewBox="0 0 180 180" style="enable-background:new 0 0 180 180;" xml:space="preserve">
<style type="text/css">
	.st0{fill:#686868;}
	.st1{fill:#565656;}
	.st2{fill:#515151;}
	.st3{fill:#4C4C4C;}
	.st4{fill:#4B4B4B;}
	.st5{fill:#4F4F4F;}
	.st6{fill:#ADADAD;}
	.st7{fill:#A9A9A9;}
	.st8{fill:#AFAFAF;}
	.st9{fill:#A6A6A6;}
	.st10{fill:#545454;}
	.st11{fill:#B2B2B2;}
	.st12{fill:#ABABAB;}
	.st13{fill:#4D4D4D;}
	.st14{fill:#505050;}
	.st15{fill:#ACACAC;}
</style>
<path class="st0" d="M93.4,86.4c0-4.7,0-9.4,0.1-13.9c3-2.9,6.8-0.7,10.2-1.4c0.6-0.1,1.2,0,1.8,0c-0.4,0-0.7,0.1-1.1,0
	c-0.7-0.2,0.2,0.1-0.6,0c-3.4-0.6-7.1,1.6-10.2-1.3c0-3.5,0.2-7,0.1-10.6c-0.2-4.6,1.7-7.1,6.2-7.3c1.4,0,2.8,0.8,4.3,0.6
	c7.9,1.4,13.8,7,20.6,10.6c13.4,7,26.1,15.5,39.4,22.5c3.2,1.8,6.4,3.6,5.4,8.2c-6.2,6.4-14.6,9.4-22.1,13.8
	c-12,7.2-24.1,14.1-36.3,21c-2.5,1.4-4.8,2.5-7.4,0.8c-1.4-1-2.2-2.4-2.2-4.2c0.4,0.2,0,0.7,0.1,1c0.2,0.7,0.7,1.3,1,1.9
	c1,2.2,4.1,1.6,4.6,4.1c-1.4,1-2.8,2.2-4.3,3c-5.9,3.2-9.2,1.4-9.4-5.2c-0.2-7.7,0-15.3,0-23c3.7-3.5,8.3-1.3,12.5-1.8
	c0.4,0,0.6-0.1,1,0c0.4-0.7,0.2,0.7-0.1,0c0-0.1-0.5,0-0.8-0.1c-4.2-0.6-8.8,1.7-12.5-1.9c-0.1-4.7-0.1-9.4-0.2-14
	c1-2.2,3-1.2,4.6-1.4C96.4,87.6,94.4,88.4,93.4,86.4z"/>
<path class="st1" d="M93.7,103.3c5.8,0,11.6,0.1,17.4,0.2c1.2,0,2.8-0.1,3,1.3c0.2,2-1.7,2-3,2c-5.8,0.1-11.5,0.2-17.4,0.2
	c-4.2-0.1-8.3-0.2-12.5-0.5c-1,0-2.3,0-2.4-1.2c-0.2-1.6,1.2-1.8,2.4-1.9C85.3,103.4,89.5,103.4,93.7,103.3z"/>
<path class="st2" d="M61.9,86.5c5,0,10,0,14.9,0c1.1,0,2.8-0.2,2.5,1.6c-0.2,1.4-1.9,1.2-3,1.2c-10,0-19.9,0-29.9,0
	c-1.1,0-2.8,0.4-2.8-1.3c0-1.7,1.7-1.4,2.8-1.4C51.6,86.4,56.8,86.5,61.9,86.5z"/>
<path class="st3" d="M19,85.8c3.1,0,6.4,0,9.5,0c1,0,2.3,0,2.4,1.2c0.1,1.6-1.4,1.7-2.5,1.8c-6.5,0-13.1,0-19.5-0.1
	c-0.6,0-1.7-0.6-1.8-1.1c-0.2-1.2,1-1.6,1.8-1.7C12.3,85.7,15.6,85.8,19,85.8z"/>
<path class="st4" d="M33.7,103.6c3.2,0,6.4,0,9.6,0c1,0,2.2,0.4,1.9,1.6c-0.1,0.5-1.2,1.3-1.8,1.3c-6.4,0-12.7,0-19.1-0.1
	c-0.6,0-1.8-0.8-1.8-1.2c0-1.2,1.1-1.4,2.2-1.4C27.9,103.6,30.9,103.6,33.7,103.6L33.7,103.6z"/>
<path class="st5" d="M39.4,72.3c-4.8,0-9.6,0-14.4,0c-0.8,0-2.3,0.1-2.3-1.2c0-1.4,1.3-1.2,2.2-1.3c9.6,0,19.2,0,28.8,0
	c1,0,2.2,0.2,1.9,1.6c-0.1,0.5-1.2,1-1.9,1C49,72.3,44.2,72.3,39.4,72.3z"/>
<path class="st6" d="M68.3,137.8c3.4-0.5,7.7-1.1,12-1.7c1.9-0.2,4.6,0.4,4.6,1.8c0,2.6-2.3,0.2-3.5,0.5c-5.6,1-11.2,1.7-16.9,1.3
	c-1.1,0-2.6,2.3-3-0.1c-0.2-1.2,1.7-2,3.1-2.2C65.4,137.3,66.5,137.6,68.3,137.8z"/>
<path class="st3" d="M93.6,69.6c6,0.1,12,0.1,18,0.2c0.7,0,1.9,0.5,2,0.8c0.2,1.4-1.2,1.3-2,1.4c-6,0.1-12,0.2-18,0.2
	C92.2,71.5,92.2,70.5,93.6,69.6z"/>
<path class="st3" d="M61.6,103.4c1.9,0.5,5.3-0.8,5.2,1.3c-0.2,3-3.7,1.7-5.8,1.9c-1.7,0.1-4.7,0.6-4.6-1.2
	C56.5,102.3,59.8,104.2,61.6,103.4z"/>
<path class="st7" d="M25.9,31.2c-1,1.9-2.4,3.4-4.1,3.2c-1.7-0.1-3.7-1.2-3.4-3.4c0.2-1.4,1.8-2.6,3.5-2.8
	C23.8,28.3,25,29.8,25.9,31.2z"/>
<path class="st8" d="M143.2,18.1c0.2,0.2,0.7,0.7,0.8,1.2c0.6,2.2-3.8,8.2-6.2,8.3c-0.6,0-1.2-0.1-1.6-0.5
	C135.8,26.7,142.1,18.1,143.2,18.1z"/>
<path class="st9" d="M76.4,158.8c-0.6,1.8-1.6,3.4-3.2,3.4c-1.9,0-3.6-1.3-3.5-3.2c0-1.6,1.7-2.8,3.4-2.9
	C74.9,155.9,75.5,157.7,76.4,158.8z"/>
<path class="st3" d="M93.4,86.4c3,0.1,5.9,0.2,8.8,0.4c0.7,0,1.8,0.1,1.8,1.1c0,1-1,1.1-1.8,1.1c-3,0.1-5.9,0.2-8.8,0.4
	C92.4,88.3,92.2,87.3,93.4,86.4z"/>
<path class="st10" d="M74.1,72.6c-1.8-0.8-5,1-4.8-1.9c0.1-1.9,3.4-1.1,5.2-1c1.7,0.1,4.8-1.3,4.6,1.6
	C79.1,73.4,75.8,71.9,74.1,72.6z"/>
<path class="st11" d="M155.9,48.2c-0.5,1.2-1.3,1.9-2.8,1.6c-1.2-0.2-2.2-1.1-1.9-2.4c0.4-1.6,1.6-2.3,3-1.8
	C155.4,45.8,156.2,46.8,155.9,48.2z"/>
<path class="st11" d="M75.6,33.5c-1.2-0.1-2.4-0.6-2.3-2c0.1-1.3,1.2-2,2.4-2c1.3,0,2.3,0.6,2.3,2C77.9,32.8,76.8,33.3,75.6,33.5z"
	/>
<path class="st8" d="M133.1,148.6c-0.4,1.7-1.3,2.4-2.6,2.3c-1.2-0.1-2.4-0.7-2.2-2.2c0.1-1.3,1.2-1.9,2.5-1.9
	C132.3,146.8,132.9,147.6,133.1,148.6z"/>
<path class="st12" d="M3,69c1.3,0.1,2.5,0.6,2.5,2c0,1.4-1.1,2-2.4,2c-1.1,0-2-0.7-2.2-1.7C0.8,69.9,1.7,69.2,3,69z"/>
<path class="st7" d="M37.1,128.2c0,1.2-0.7,1.9-1.8,1.9c-1.3,0.1-2.3-0.6-2.3-2c0-1.1,0.8-1.7,2-1.7C36.3,126.5,37,127,37.1,128.2z"
	/>
<path class="st13" d="M174.3,82.2C153.2,69.9,132.1,57.8,111,46c-6.4-3.6-10-1.4-11,5.9c0.5,2.4-1.3,5.9,1.8,6.7
	c2,0.5,1.4-2.6,1.8-4.2l0,0l0,0c-0.1-8,1-8.6,8-4.7c19.2,10.9,38.4,21.9,57.4,33c2.3,1.3,5.9,2,5.9,5.3c0,3.6-3.7,4.2-6.2,5.6l0,0
	c-17.4,10.2-34.8,20.4-52.3,30.3c-3,1.8-6,4.9-9.7,4.2c-4.9-1.1-2.4-6-3.4-9.1c-0.2-1-0.6-2-1.8-2c-1,0-1.2,1-1.4,1.7
	c-2.2,6.4,0.7,11.9,7.3,13.8c22.9-12.2,45.2-25.4,67.4-38.7C179.8,90.4,179.5,85.3,174.3,82.2z"/>
<path class="st14" d="M121.9,89c-1.7-0.4-4.6,0.5-4.6-1.7c0-2.8,3-1.8,4.8-1.8s4.9-0.8,4.8,1.8C126.8,89.7,123.7,88.6,121.9,89z"/>
<path class="st6" d="M47.6,43.2c-3.8-0.7-2.4,3.6-3.6,5.3c-0.2,2.3-0.2,4.3,2.4,3.8c2.9-0.6,7.4-0.6,7.8-3.2
	C54.5,46.3,50.5,43.8,47.6,43.2z M47.8,49.8c-1,0-1.2-0.8-1-1.7c0.4-1,0.8-1.8,2-1.6c1,0.1,1.8,0.7,1.8,1.9
	C50,49.7,48.8,49.9,47.8,49.8z"/>
<path class="st15" d="M160.4,132.2c-3-0.5-4.4,1.8-4.7,4.9c-0.2,3.8,3.1,4.7,5.8,4.7c2.6,0,5.2-1.9,5.2-4.8
	C166.6,133.9,164.4,132.1,160.4,132.2z M160.8,139.6c-1.4-0.1-2.9-0.7-2.9-2.4c0-2,1.3-2.6,3.1-2.5c1.4,0.1,2.9,0.7,2.9,2.3
	C163.9,138.8,162.6,139.7,160.8,139.6z"/>
</svg>
