<?xml version="1.0" encoding="utf-8"?>
<!-- Generator: Adobe Illustrator 23.0.1, SVG Export Plug-In . SVG Version: 6.00 Build 0)  -->
<svg version="1.1" id="Layer_1" xmlns="http://www.w3.org/2000/svg" xmlns:xlink="http://www.w3.org/1999/xlink" x="0px" y="0px"
	 viewBox="0 0 180 180" style="enable-background:new 0 0 180 180;" xml:space="preserve">
<style type="text/css">
	.st0{fill:#474747;}
</style>
<path class="st0" d="M178.15,90.04c-0.23,22.92-8.37,43.28-24.34,60.5c-5.1,5.5-11.48,6.21-16.29,1.93
	c-4.92-4.38-4.73-10.89,0.49-16.7c25.09-27.92,24.89-65.53-0.5-92.93c-5.17-5.58-5.38-11.85-0.56-16.3
	c4.66-4.3,11.46-3.84,16.44,1.46C169.58,45.26,177.92,65.72,178.15,90.04z"/>
<path class="st0" d="M33.88,22.86c5.06,1.05,8.43,2.99,10.24,6.98c2.04,4.52,0.88,8.53-2.07,12.54
	c-4.99,6.8-10.81,13.41-13.97,21.06C17.2,89.78,21.79,114,40.77,135.28c3.4,3.81,5.28,7.72,3.75,12.67
	c-2.46,7.94-12.36,9.79-18.62,3.32c-12.36-12.78-20.5-27.96-23.47-45.5C-2.55,76.3,5.01,50.3,25.51,28.39
	C27.74,26.02,31.06,24.68,33.88,22.86z"/>
<path class="st0" d="M140.95,95.6c-0.16,9.36-5.95,22.18-17.28,32.47c-4.65,4.23-11.15,4.1-15.3-0.12
	c-4.18-4.26-4.52-11.17,0.33-15.17c13.59-11.19,14.68-33.33,0.67-45.95c-4.53-4.08-4.43-10.72-0.62-14.84
	c4.22-4.57,10.48-4.81,15.67-0.59C134.43,59.53,140.98,74.68,140.95,95.6z"/>
<path class="st0" d="M37.98,86.35c0.07-11.26,5.43-23.78,15.95-34.06c5.22-5.1,11.38-5.33,15.97-0.81
	c4.38,4.33,4.08,10.96-0.73,16.02c-12.98,13.65-12.99,30.19-0.02,44.05c4.75,5.08,5.02,11.05,0.71,15.6
	c-4.37,4.61-10.73,4.52-16.04-0.23C44.27,118.41,38.05,103.82,37.98,86.35z"/>
<path class="st0" d="M102.65,89.5c-0.01,7.14-5.81,13.03-12.95,13.15c-7.33,0.12-13.37-5.96-13.25-13.32
	c0.12-7.22,5.99-12.96,13.19-12.88C96.83,76.51,102.66,82.36,102.65,89.5z"/>
</svg>
