<?xml version="1.0" encoding="utf-8"?>
<!-- Generator: Adobe Illustrator 23.0.1, SVG Export Plug-In . SVG Version: 6.00 Build 0)  -->
<svg version="1.1" id="Layer_1" xmlns="http://www.w3.org/2000/svg" xmlns:xlink="http://www.w3.org/1999/xlink" x="0px" y="0px"
	 viewBox="0 0 180 180" style="enable-background:new 0 0 180 180;" xml:space="preserve">
<style type="text/css">
	.st0{fill:#474747;}
</style>
<path class="st0" d="M147.17,59.84c-2.64,0.21-4.94,0.4-8.07,0.65c0,2.13,0.04,4.21-0.01,6.29c-0.22,9.98,0.58,20.13-0.92,29.92
	c-3.29,21.34-15.08,35.86-36.9,40.91c-0.64,0.15-1.24,0.45-2.03,0.75c0,9.14,0,18.27,0,28.11c10.34,0,20.58,0,31.2,0
	c0,4.08,0,7.46,0,11.19c-25.38,0-50.61,0-76.2,0c0-3.41,0-6.66,0-10.58c1.65-0.12,3.4-0.36,5.14-0.37c7.33-0.04,14.67-0.09,22,0.01
	c2.79,0.04,4.35-0.58,4.28-3.85c-0.17-7.33,0.11-14.67-0.2-21.99c-0.06-1.41-1.72-3.5-3.09-3.99c-22.17-7.8-34.22-24.53-34.26-47.98
	c-0.02-9.32,0-18.64,0-28.5c-2.98-0.25-5.69-0.48-8.69-0.73c0-3.16,0-6.09,0-9.94c7.08,0,14.16,0,21.24,0c7.63,0,7.63,0,7.63-7.42
	c0-4.67-0.07-9.33,0.02-14c0.3-14.79,11.1-25.94,24.96-25.85c13.93,0.09,24.58,11.32,24.68,26.06c0.05,6.82,0.01,13.65,0.01,21.2
	c9.81,0,19.36,0,29.23,0C147.17,53.54,147.17,56.61,147.17,59.84z M117.94,60.42c0,10.73-0.04,20.87,0.01,31.02
	c0.03,6.42-1.85,12.14-6.04,17.02c-6.72,7.83-17.49,10.62-27.26,7.12c-9.72-3.48-16.08-12.4-16.33-23.48
	c-0.22-9.32-0.18-18.65,0-27.97c0.07-3.59-1.68-4.22-4.61-3.97c-2.49,0.21-5.54-0.88-5.45,3.6c0.19,9.49-0.31,19.01,0.21,28.47
	c0.95,16.98,11.6,30.59,26.34,34.56c19.95,5.37,39.79-7.94,42.93-30.13c1.64-11.59,0.69-23.55,0.88-35.35
	c0-0.24-0.39-0.49-0.72-0.88C124.92,60.42,121.81,60.42,117.94,60.42z"/>
</svg>
