<?xml version="1.0" encoding="utf-8"?>
<!-- Generator: Adobe Illustrator 23.0.1, SVG Export Plug-In . SVG Version: 6.00 Build 0)  -->
<svg version="1.1" id="Layer_1" xmlns="http://www.w3.org/2000/svg" xmlns:xlink="http://www.w3.org/1999/xlink" x="0px" y="0px"
	 viewBox="0 0 180 180" style="enable-background:new 0 0 180 180;" xml:space="preserve">
<style type="text/css">
	.st0{fill:#686868;}
	.st1{fill:#565656;}
	.st2{fill:#515151;}
	.st3{fill:#4C4C4C;}
	.st4{fill:#4B4B4B;}
	.st5{fill:#4F4F4F;}
	.st6{fill:#ADADAD;}
	.st7{fill:#B2B2B2;}
	.st8{fill:#A9A9A9;}
	.st9{fill:#A8A8A8;}
	.st10{fill:#AFAFAF;}
	.st11{fill:#A6A6A6;}
	.st12{fill:#545454;}
	.st13{fill:#ABABAB;}
	.st14{fill:#4D4D4D;}
	.st15{fill:#505050;}
	.st16{fill:#ACACAC;}
</style>
<path class="st0" d="M90.6,87.8c0-3.9,0-7.8,0.1-11.6c2.5-2.4,5.7-0.6,8.5-1.2c0.5-0.1,1,0,1.5,0c-0.3,0-0.6,0.1-0.9,0
	c-0.6-0.2,0.2,0.1-0.5,0c-2.8-0.5-5.9,1.3-8.5-1.1c0-2.9,0.2-5.8,0.1-8.8c-0.2-3.8,1.4-5.9,5.2-6.1c1.2,0,2.3,0.7,3.6,0.5
	c6.6,1.2,11.5,5.8,17.2,8.8c11.2,5.8,21.8,12.9,32.9,18.8c2.7,1.5,5.3,3,4.5,6.8c-5.2,5.3-12.2,7.8-18.4,11.5
	c-10,6-20.1,11.8-30.3,17.5c-2.1,1.2-4,2.1-6.2,0.7c-1.2-0.8-1.8-2-1.8-3.5c0.3,0.2,0,0.6,0.1,0.8c0.2,0.6,0.6,1.1,0.8,1.6
	c0.8,1.8,3.4,1.3,3.8,3.4c-1.2,0.8-2.3,1.8-3.6,2.5c-4.9,2.7-7.7,1.2-7.8-4.3c-0.2-6.4,0-12.8,0-19.2c3.1-2.9,6.9-1.1,10.4-1.5
	c0.3,0,0.5-0.1,0.8,0c0.3-0.6,0.2,0.6-0.1,0c0-0.1-0.4,0-0.7-0.1c-3.5-0.5-7.3,1.4-10.4-1.6c-0.1-3.9-0.1-7.8-0.2-11.7
	c0.8-1.8,2.5-1,3.8-1.2C93.1,88.8,91.4,89.5,90.6,87.8z"/>
<path class="st1" d="M90.8,101.9c4.8,0,9.7,0.1,14.5,0.2c1,0,2.3-0.1,2.5,1.1c0.2,1.7-1.4,1.7-2.5,1.7c-4.8,0.1-9.6,0.2-14.5,0.2
	c-3.5-0.1-6.9-0.2-10.4-0.4c-0.8,0-1.9,0-2-1c-0.2-1.3,1-1.5,2-1.6C83.8,102,87.3,102,90.8,101.9z"/>
<path class="st2" d="M64.3,87.9c4.2,0,8.3,0,12.4,0c0.9,0,2.3-0.2,2.1,1.3c-0.2,1.2-1.6,1-2.5,1c-8.3,0-16.6,0-24.9,0
	c-0.9,0-2.3,0.3-2.3-1.1c0-1.4,1.4-1.2,2.3-1.2C55.7,87.8,60,87.9,64.3,87.9z"/>
<path class="st3" d="M28.5,87.3c2.6,0,5.3,0,7.9,0c0.8,0,1.9,0,2,1c0.1,1.3-1.2,1.4-2.1,1.5c-5.4,0-10.9,0-16.3-0.1
	c-0.5,0-1.4-0.5-1.5-0.9c-0.2-1,0.8-1.3,1.5-1.4C22.9,87.2,25.7,87.3,28.5,87.3z"/>
<path class="st4" d="M40.8,102.2c2.7,0,5.3,0,8,0c0.8,0,1.8,0.3,1.6,1.3c-0.1,0.4-1,1.1-1.5,1.1c-5.3,0-10.6,0-15.9-0.1
	c-0.5,0-1.5-0.7-1.5-1c0-1,0.9-1.2,1.8-1.2C35.9,102.2,38.4,102.2,40.8,102.2C40.8,102.2,40.8,102.2,40.8,102.2z"/>
<path class="st5" d="M45.5,76.1c-4,0-8,0-12,0c-0.7,0-1.9,0.1-1.9-1c0-1.2,1.1-1,1.8-1.1c8,0,16,0,24,0c0.8,0,1.8,0.2,1.6,1.3
	c-0.1,0.4-1,0.8-1.6,0.8C53.5,76.1,49.5,76.1,45.5,76.1z"/>
<path class="st6" d="M69.6,130.7c2.8-0.4,6.4-0.9,10-1.4c1.6-0.2,3.8,0.3,3.8,1.5c0,2.2-1.9,0.2-2.9,0.4c-4.7,0.8-9.3,1.4-14.1,1.1
	c-0.9,0-2.2,1.9-2.5-0.1c-0.2-1,1.4-1.7,2.6-1.8C67.2,130.3,68.1,130.5,69.6,130.7z"/>
<path class="st3" d="M90.7,73.8c5,0.1,10,0.1,15,0.2c0.6,0,1.6,0.4,1.7,0.7c0.2,1.2-1,1.1-1.7,1.2c-5,0.1-10,0.2-15,0.2
	C89.6,75.4,89.6,74.6,90.7,73.8z"/>
<path class="st7" d="M17.7,115c-0.2,1.4-1.6,1.2-2.2,0.8c-2.8-1.9-5.5-3.9-8-6.1c-1.1-0.9,0.1-1.3,0.9-1.5
	C9.5,108,17.4,113.7,17.7,115z"/>
<path class="st3" d="M64,102c1.6,0.4,4.4-0.7,4.3,1.1c-0.2,2.5-3.1,1.4-4.8,1.6c-1.4,0.1-3.9,0.5-3.8-1
	C59.8,101.1,62.5,102.7,64,102z"/>
<path class="st8" d="M34.3,41.8c-0.8,1.6-2,2.8-3.4,2.7c-1.4-0.1-3.1-1-2.8-2.8c0.2-1.2,1.5-2.2,2.9-2.3
	C32.5,39.4,33.5,40.6,34.3,41.8z"/>
<path class="st9" d="M177,70.1c-0.4,1.5-1.6,2.4-2.8,2.5c-1.6,0.2-3-0.9-3.2-2.5c-0.1-1.4,1.4-2.3,2.7-2.5
	C175.2,67.5,176.3,68.6,177,70.1z"/>
<path class="st10" d="M132.1,30.9c0.2,0.2,0.6,0.6,0.7,1c0.5,1.8-3.2,6.8-5.2,6.9c-0.5,0-1-0.1-1.3-0.4
	C125.9,38,131.2,30.9,132.1,30.9z"/>
<path class="st9" d="M166.5,116.9c1.6,0.4,2.9,1.3,2.8,2.9c-0.1,1.4-1.4,2.3-2.7,2.3c-1.4,0-2.7-1-2.8-2.3
	C163.6,118.1,165.2,117.5,166.5,116.9z"/>
<path class="st11" d="M76.4,148.2c-0.5,1.5-1.3,2.8-2.7,2.8c-1.6,0-3-1.1-2.9-2.7c0-1.3,1.4-2.3,2.8-2.4
	C75.1,145.8,75.6,147.3,76.4,148.2z"/>
<path class="st3" d="M90.6,87.8c2.5,0.1,4.9,0.2,7.3,0.3c0.6,0,1.5,0.1,1.5,0.9c0,0.8-0.8,0.9-1.5,0.9c-2.5,0.1-4.9,0.2-7.3,0.3
	C89.7,89.4,89.6,88.6,90.6,87.8z"/>
<path class="st12" d="M74.5,76.3c-1.5-0.7-4.2,0.8-4-1.6c0.1-1.6,2.8-0.9,4.3-0.8c1.4,0.1,4-1.1,3.8,1.3
	C78.6,77,75.9,75.7,74.5,76.3z"/>
<path class="st7" d="M142.7,56c-0.4,1-1.1,1.6-2.3,1.3c-1-0.2-1.8-0.9-1.6-2c0.3-1.3,1.3-1.9,2.5-1.5C142.3,54,142.9,54.8,142.7,56z
	"/>
<path class="st7" d="M75.7,43.7c-1-0.1-2-0.5-1.9-1.7c0.1-1.1,1-1.7,2-1.7c1.1,0,1.9,0.5,1.9,1.7C77.6,43.1,76.7,43.5,75.7,43.7z"/>
<path class="st10" d="M123.7,139.7c-0.3,1.4-1.1,2-2.2,1.9c-1-0.1-2-0.6-1.8-1.8c0.1-1.1,1-1.6,2.1-1.6
	C123,138.2,123.5,138.9,123.7,139.7z"/>
<path class="st13" d="M15.2,73.3c1.1,0.1,2.1,0.5,2.1,1.7c0,1.2-0.9,1.7-2,1.7c-0.9,0-1.7-0.6-1.8-1.4
	C13.3,74.1,14.1,73.5,15.2,73.3z"/>
<path class="st8" d="M43.6,122.7c0,1-0.6,1.6-1.5,1.6c-1.1,0.1-1.9-0.5-1.9-1.7c0-0.9,0.7-1.4,1.7-1.4
	C42.9,121.3,43.5,121.7,43.6,122.7z"/>
<path class="st14" d="M158,84.3c-17.6-10.2-35.2-20.3-52.8-30.2c-5.3-3-8.3-1.2-9.2,4.9c0.4,2-1.1,4.9,1.5,5.6
	c1.7,0.4,1.2-2.2,1.5-3.5l0,0l0,0c-0.1-6.7,0.8-7.2,6.7-3.9c16,9.1,32,18.3,47.9,27.5c1.9,1.1,4.9,1.7,4.9,4.4c0,3-3.1,3.5-5.2,4.7
	l0,0c-14.5,8.5-29,17-43.6,25.3c-2.5,1.5-5,4.1-8.1,3.5c-4.1-0.9-2-5-2.8-7.6c-0.2-0.8-0.5-1.7-1.5-1.7c-0.8,0-1,0.8-1.2,1.4
	c-1.8,5.3,0.6,9.9,6.1,11.5c19.1-10.2,37.7-21.2,56.2-32.3C162.6,91.2,162.4,86.9,158,84.3z"/>
<path class="st15" d="M114.3,90c-1.4-0.3-3.8,0.4-3.8-1.4c0-2.3,2.5-1.5,4-1.5c1.5,0,4.1-0.7,4,1.5C118.4,90.6,115.8,89.7,114.3,90z
	"/>
<path class="st6" d="M52.4,51.8c-3.2-0.6-2,3-3,4.4c-0.2,1.9-0.2,3.6,2,3.2c2.4-0.5,6.2-0.5,6.5-2.7C58.1,54.4,54.8,52.3,52.4,51.8z
	 M52.5,57.3c-0.8,0-1-0.7-0.8-1.4c0.3-0.8,0.7-1.5,1.7-1.3c0.8,0.1,1.5,0.6,1.5,1.6C54.4,57.2,53.4,57.4,52.5,57.3z"/>
<path class="st16" d="M146.4,126c-2.5-0.4-3.7,1.5-3.9,4.1c-0.2,3.2,2.6,3.9,4.8,3.9c2.2,0,4.3-1.6,4.3-4
	C151.6,127.4,149.8,125.9,146.4,126z M146.8,132.2c-1.2-0.1-2.4-0.6-2.4-2c0-1.7,1.1-2.2,2.6-2.1c1.2,0.1,2.4,0.6,2.4,1.9
	C149.4,131.5,148.3,132.3,146.8,132.2z"/>
</svg>
