<?xml version="1.0" encoding="utf-8"?>
<!-- Generator: Adobe Illustrator 19.2.0, SVG Export Plug-In . SVG Version: 6.00 Build 0)  -->
<svg version="1.1" id="Layer_1" xmlns="http://www.w3.org/2000/svg" xmlns:xlink="http://www.w3.org/1999/xlink" x="0px" y="0px"
	 viewBox="0 0 747 610.1" style="enable-background:new 0 0 747 610.1;" xml:space="preserve">
<style type="text/css">
	.st0{fill:#4F4F4F;}
	.st1{fill:#A09F9F;}
	.st2{fill:#686868;}
	.st3{fill:none;stroke:#4F4F4F;stroke-width:13;stroke-linecap:round;stroke-linejoin:round;stroke-miterlimit:10;}
	.st4{fill:none;stroke:#4F4F4F;stroke-width:10.4561;stroke-miterlimit:10;}
	.st5{fill:none;stroke:#4F4F4F;stroke-width:9.2943;stroke-miterlimit:10;}
</style>
<g>
	<path class="st1" d="M0,397c2.9-0.9,5.7-2.1,8.7-2.7c1.7-0.4,3.6,0,5.5,0c9.3-0.2,10.2,0.7,9.2,10.1c-0.4,4.1,0.7,6.1,5.1,5.2
		c0.3-0.1,0.6-0.2,1-0.2c8.4-0.9,10.3,0.8,10.5,9.3c0,1.8,0,3.7,0,6.3c3.7,0,7.4-0.5,10.8,0.2c1.9,0.4,3.4,2.6,5.1,4
		c-1.8,1-3.6,2.6-5.5,2.8c-3.9,0.5-8,0.1-11.9,0.2c-3.7,0.1-5.6-1.3-5.5-5.2c0.1-3.1,0-6.3,0-10.1c-3.4,0-6.4-0.2-9.2,0.1
		c-4.5,0.4-7-1.3-7.2-5.9c-0.1-2.8-0.4-5.6-0.7-9.2c-2.9,0-6,0.4-9-0.1C4.4,401.4,2.3,400,0,399C0,398.3,0,397.7,0,397z"/>
	<path class="st1" d="M747,203c-4.2,4.4-8.5,8.9-12.8,13.2c-2.3,2.4-5.8,3-7.3,0.1c-2.7-5.4-7.7-8-11.7-11.7c-0.6-0.5-1-1.3-1.8-2.4
		c1.7-1.5,3.5-2.7,4.9-4.2c2.4-2.5,5-5,7-7.9c2.1-3,5.1-3.7,7.8-1.2c4.6,4.3,9.2,8.6,13.8,13C747,202.3,747,202.7,747,203z"/>
	<path class="st1" d="M548,0c2,6.4,4.1,12.7,5.7,19.2c0.2,1-1.7,3.2-3.1,3.7c-3.5,1.3-7.2,2-11.2,3.1c0.8,3.3,1.7,6.6,2.5,9.9
		c0.9,3.7-0.4,6-4.3,6.8c-4.2,0.9-8.2,2.6-12.5,3.2c-1.5,0.2-3.3-1.7-5-2.6c1.2-1.4,2.1-3.4,3.6-4.1c3.3-1.5,6.9-2.3,10.6-3.4
		c-0.9-3.7-1.5-7.1-2.7-10.3c-1.4-3.7,0.4-5.3,3.6-6.1c3.5-0.9,7-1.6,10.7-2.4C546,11.1,539.2,5.4,546,0C546.7,0,547.3,0,548,0z"/>
	<path class="st1" d="M265.1,503.9c2,0.7,5.3,1.6,8.5,2.9c3.5,1.5,6.4,1.7,9.5-1.1c5.6-5,11.9-6.4,18.8-2.3c4.4,2.6,8.1,1,11.9-1.7
		c7.1-5.1,12.7-4.9,19.8,0.5c2.2,1.7,4.6,3.5,6.2,5.7c0.9,1.2,0.3,3.5,0.3,5.3c-1.7,0-3.7,0.5-4.9-0.2c-2.8-1.7-5-4.3-7.7-6.2
		c-2.7-1.9-5.3-2.3-8.5,0.4c-6.1,5.2-13.4,6.9-20.7,2.6c-4-2.3-7.3-1.5-9.9,1.1c-5.9,5.8-12.1,5-18.8,2.2c-7.1-2.9-9.3-2.2-13.7,4
		c-0.6,0.8-1.1,1.6-1.6,2.5c-1.3,2.4-3.1,4.3-5.9,2.5c-2.9-1.9-1.7-4.1-0.1-6.4C251.9,509.9,255.6,504,265.1,503.9z"/>
	<path class="st1" d="M125.6,61.9c-1.8,1.7-3.4,3.1-4.8,4.5c-2.4,2.3-5.2,4.4-7.1,7.1c-2.8,4.1-6,4.7-8.9,0.6
		c-2.5-3.7-4.9-7.1-9.4-9c-3.5-1.5-3.5-5-0.4-7c4.3-2.7,7.7-5.9,10.2-10.4c1.9-3.4,6.4-3.1,7.9,0.6c1.8,4.4,5.1,6.7,8.7,9.2
		C123.2,58.4,124.1,60,125.6,61.9z"/>
	<path class="st1" d="M714.8,450.9c-1.4,1.4-2.9,2.7-4.3,4.1c-2.4,2.3-5.3,4.3-7.1,7c-3.1,4.6-6.2,4.8-9.5,0.4
		c-2.2-2.9-4.8-5.7-7.7-7.9c-4-3.1-4.2-5.3-0.4-8.6c3.2-2.8,6.2-5.8,9-8.9c2.7-3.1,5.3-3.2,8-0.5c3.5,3.5,6.7,7.1,10,10.8
		C713.4,448,713.8,449.1,714.8,450.9z"/>
	<path class="st1" d="M276.8,593.6c1.6-1,3.3-1.6,4.4-2.8c2.7-2.7,5.4-5.6,7.8-8.6c2-2.5,4.3-5,7.2-2.2c4.8,4.5,9,9.6,13.9,14.9
		c-1.4,1.2-3.1,2.5-4.6,4c-2.4,2.5-5,4.9-7,7.8c-1.9,2.7-3.9,4.8-6.7,2.3C287,604.7,282.7,599.7,276.8,593.6z"/>
	<path class="st1" d="M585.7,118.5c4.4,0.1,10.4,6,10.5,10.4c0.1,5.3-4.7,10-10.2,10.1c-5.4,0-10.1-4.6-10.1-10
		C575.8,123.9,580.9,118.5,585.7,118.5z"/>
	<path class="st1" d="M303.4,71.1c-5.7-0.3-10.2-4.8-9.8-9.9c0.3-4.6,6.5-10.4,10.9-10.2c4.9,0.2,10,5.7,9.7,10.3
		C313.7,66.8,308.6,71.4,303.4,71.1z"/>
	<path class="st1" d="M50.2,227.4c-0.3,5.3-5.1,9.7-10.2,9.5c-6.1-0.3-10.6-4.9-10.1-10.5c0.5-5.3,5-9.5,9.9-9.2
		C45.1,217.5,50.4,222.8,50.2,227.4z"/>
	<path class="st1" d="M513.2,551c0,6.6-3,10.1-8.8,10.1c-5.9,0-10.8-4.3-10.8-9.3c0-4.9,5.8-10.5,10.7-10.5
		C509.6,541.3,513.2,545.2,513.2,551z"/>
	<path class="st1" d="M165.9,466.1c-0.1,4.8-5.4,9.9-10.1,9.8c-4.5-0.1-10-5.7-10-10.2c0-4.5,5.7-9.7,10.3-9.6
		C161.4,456.3,166,461,165.9,466.1z"/>
	<path class="st1" d="M634.4,500.6c-2.9-5.2-5.3-10.7-8.4-15.9c-1.1-1.8-3.4-2.9-4.2-3.5c-8.7,1.1-15.8,1.9-22.8,3.1
		c-1.2,0.2-2.7,2-3,3.4c-1.5,6.9-2.8,13.9-3.6,21c-0.2,1.7,1.4,4.4,3,5.4c5.8,3.6,11.8,6.8,17.9,9.6c1.5,0.7,4.5,0.1,5.9-1
		c4.4-3.5,8.4-7.5,12.5-11.3C634.9,508.4,637,505.2,634.4,500.6z M623.4,508.5c-3,2.5-6,7.4-8.8,7.2c-4.3-0.2-8.6-3.7-12.7-6.2
		c-1-0.6-1.9-2.6-1.8-3.9c0.1-2.9,1.3-5.8,1.3-8.8c0-4.6,2.4-6.3,6.5-6.8c3.4-0.4,6.9-1,10.3-1.2c1-0.1,2.5,0.9,3,1.8
		c2.5,4.5,4.7,9.1,7.1,13.9C626.5,506,624.9,507.2,623.4,508.5z"/>
	<path class="st1" d="M228.2,131.9c-8.8-7.7-17.7-15.5-26.6-23.1c-4.4-3.8-6.8-3.1-8.2,2.6c-0.8,3.4-1.1,6.8-1.8,10.2
		c-1.5,8.5-3.1,16.9-4.6,25.3c0.1,4.3,2.9,4.7,5.8,3.7c11.5-3.8,22.9-7.7,34.2-11.7C231,137.6,231.4,134.7,228.2,131.9z
		 M195.1,142.5c1.7-8.9,3.2-16.6,4.9-25.4c6.8,6,12.7,11.2,19.4,17C211.1,137,203.6,139.5,195.1,142.5z"/>
	<path class="st2" d="M634.3,306.4c10.9,7.3,10.9,23.4,0,30.7l-120.6,81.2l-114.6,77.1c-12.3,8.3-28.9-0.5-28.9-15.4V321.8V163.4
		c0-14.8,16.6-23.7,28.9-15.4l114.6,77.1L634.3,306.4z"/>
	<path class="st0" d="M228.9,229H116.1c-2.8,0-5.1-2.3-5.1-5.1v-0.8c0-2.8,2.3-5.1,5.1-5.1h112.8c2.8,0,5.1,2.3,5.1,5.1v0.8
		C234,226.7,231.7,229,228.9,229z"/>
	<path class="st0" d="M319.3,229h-38.2c-2.8,0-5.1-2.3-5.1-5.1v-0.8c0-2.8,2.3-5.1,5.1-5.1h38.2c2.8,0,5.1,2.3,5.1,5.1v0.8
		C324.4,226.7,322.1,229,319.3,229z"/>
	<path class="st0" d="M450.1,229h-80c-2.8,0-5.1-2.3-5.1-5.1v-0.8c0-2.8,2.3-5.1,5.1-5.1h80c2.8,0,5.1,2.3,5.1,5.1v0.8
		C455.2,226.7,452.9,229,450.1,229z"/>
	<path class="st0" d="M317.7,299H192.1c-2.8,0-5.1-2.3-5.1-5.1v-0.8c0-2.8,2.3-5.1,5.1-5.1h125.6c2.8,0,5.1,2.3,5.1,5.1v0.8
		C322.8,296.7,320.5,299,317.7,299z"/>
	<path class="st0" d="M141.1,299H59.7c-3,0-5.5-2.5-5.5-5.5l0,0c0-3,2.5-5.5,5.5-5.5h81.4c3,0,5.5,2.5,5.5,5.5l0,0
		C146.6,296.5,144.1,299,141.1,299z"/>
	<path class="st0" d="M410,299H369c-2.8,0-5.1-2.3-5.1-5.1v-0.8c0-2.8,2.3-5.1,5.1-5.1H410c2.8,0,5.1,2.3,5.1,5.1v0.8
		C415.1,296.7,412.9,299,410,299z"/>
	<path class="st0" d="M493.6,299h-38.1c-2.8,0-5.1-2.3-5.1-5.1v-0.8c0-2.8,2.3-5.1,5.1-5.1h38.1c2.8,0,5.1,2.3,5.1,5.1v0.8
		C498.7,296.7,496.4,299,493.6,299z"/>
	<path class="st0" d="M271.3,371H237c-2.8,0-5.1-2.3-5.1-5.1v-0.8c0-2.8,2.3-5.1,5.1-5.1h34.3c2.8,0,5.1,2.3,5.1,5.1v0.8
		C276.4,368.7,274.1,371,271.3,371z"/>
	<path class="st0" d="M446,371H318.3c-2.8,0-5.1-2.3-5.1-5.1v-0.8c0-2.8,2.3-5.1,5.1-5.1H446c2.8,0,5.1,2.3,5.1,5.1v0.8
		C451.1,368.7,448.8,371,446,371z"/>
	<path class="st0" d="M191.9,371h-76c-2.8,0-5.1-2.3-5.1-5.1v-0.8c0-2.8,2.3-5.1,5.1-5.1h76c2.8,0,5.1,2.3,5.1,5.1v0.8
		C197,368.7,194.7,371,191.9,371z"/>
	<path class="st3" d="M398.8,168.3v-33.4c0-14.8,16.6-23.7,28.9-15.4l114.6,77.1l120.6,81.2c10.9,7.3,10.9,23.4,0,30.7l-120.6,81.2
		L427.6,467c-12.3,8.3-28.9-0.5-28.9-15.4v-33.5"/>
</g>
</svg>
