<?xml version="1.0" encoding="utf-8"?>
<!-- Generator: Adobe Illustrator 23.0.1, SVG Export Plug-In . SVG Version: 6.00 Build 0)  -->
<svg version="1.1" id="Layer_1" xmlns="http://www.w3.org/2000/svg" xmlns:xlink="http://www.w3.org/1999/xlink" x="0px" y="0px"
	 viewBox="0 0 180.19 180.24" style="enable-background:new 0 0 180.19 180.24;" xml:space="preserve">
<style type="text/css">
	.st0{fill:#FEFEFE;}
	.st1{fill:#474747;}
</style>
<path class="st0" d="M179.15,162.11c0.32,0,0.64,0.01,0.96,0.01c0,5.32-0.07,10.64,0.04,15.96c0.04,1.62-0.15,2.46-2,2.06
	c-0.64-0.14-1.33-0.02-1.99-0.02c-57.37,0-114.74-0.04-172.11,0.1c-3.53,0.01-4.19-0.83-4.03-4.15c0.31-6.64,0.09-13.3,0.09-19.95
	c2.02-0.52,4.04-1.08,6.06,0.02c-1.01,1.32-2.04,2.61-3.01,3.96c-0.56,0.77-1.69,1.43-1.28,2.49c0.46,1.18,1.72,0.7,2.64,0.65
	c6.32-0.34,12.63-0.73,18.95-1.13c1.25-0.08,2.91-0.57,1.17-1.88c-5.1-3.81-1.33-4.77,1.69-6.21c3.15-1.5,6.36-2.95,9.34-4.75
	c3.02-1.82,5.57-1.75,8.76-0.1c13.75,7.11,27.67,13.87,41.45,20.92c2.97,1.52,5.44,1.57,8.42,0.02c10.34-5.36,20.8-10.49,31.22-15.7
	c15.03-7.52,14.99-7.44,30.13,0.45c2.94,1.53,3.56,2.58,0.65,4.61c-0.63,0.44-1.54,0.99-1.24,1.93c0.32,1.02,1.39,0.67,2.16,0.72
	c6.15,0.4,12.29,0.79,18.45,1.12C176.91,163.3,178.39,163.72,179.15,162.11z"/>
<path class="st1" d="M179.15,162.11c-0.76,1.62-2.24,1.19-3.49,1.12c-6.15-0.33-12.3-0.71-18.45-1.12c-0.76-0.05-1.84,0.3-2.16-0.72
	c-0.3-0.94,0.61-1.49,1.24-1.93c2.91-2.03,2.29-3.08-0.65-4.61c-15.14-7.89-15.1-7.97-30.13-0.45
	c-10.42,5.21-20.88,10.34-31.22,15.7c-2.98,1.54-5.45,1.49-8.42-0.02c-13.78-7.05-27.71-13.81-41.45-20.92
	c-3.18-1.65-5.74-1.73-8.76,0.1c-2.98,1.8-6.19,3.25-9.34,4.75c-3.02,1.44-6.79,2.4-1.69,6.21c1.75,1.3,0.09,1.8-1.17,1.88
	c-6.31,0.4-12.63,0.79-18.95,1.13c-0.91,0.05-2.18,0.52-2.64-0.65c-0.41-1.06,0.72-1.72,1.28-2.49c0.97-1.34,2-2.64,3.01-3.96
	c2.88-3.22,5.73-6.45,8.64-9.64c0.6-0.66,1.06-2.01,2.23-1.38c0.52,0.28,0.79,1.44,0.78,2.2c-0.07,3.34,1.32,3.69,3.84,2.04
	c0.14-0.09,0.3-0.14,0.45-0.22c4.85-2.55,11.18-4,14.11-7.97c2.84-3.84,0.76-10.31,0.79-15.62c0.09-15.65,0.19-31.3-0.07-46.95
	c-0.07-4.34,1.49-6.54,5.28-8.37c13.64-6.57,27.08-13.56,40.71-20.14c3.18-1.53,4.51-3.4,4.15-6.87c-0.27-2.64-0.12-5.32-0.04-7.99
	c0.1-3.28,0.28-6.42-4.55-3.71c-1.44,0.81-2.35,0.35-1.59-1.46c2.62-6.29,5.25-12.59,7.96-18.85c1.23-2.85,2.05-1.1,2.69,0.4
	c2.55,5.96,5.07,11.94,7.57,17.93c0.25,0.59,0.61,1.46,0.36,1.85c-0.57,0.92-1.51,0.35-2.19-0.03c-4.07-2.24-3.72,0.23-4.25,3.27
	c-1.75,10.07,2.15,15.58,11.69,19.37c11.55,4.59,22.36,11.05,33.63,16.39c3.73,1.77,4.93,4.07,4.89,8.11
	c-0.19,19.48,0,38.96-0.16,58.44c-0.03,3.47,0.92,5.53,4.19,6.85c3.38,1.36,6.59,3.17,9.84,4.86c2.75,1.43,5.26,3.43,5.46-2.27
	c0.12-3.33,1.93-0.85,2.71,0.02C169.96,151.6,174.54,156.86,179.15,162.11z M43.19,109.11c0,8.32,0.13,16.63-0.06,24.95
	c-0.09,3.77,0.9,4.23,4.16,2.55c10.04-5.19,19.9-10.91,30.39-14.98c8.25-3.21,10.5-8.18,9.49-16.21c-0.34-2.66-1.1-4.16-3.48-5.32
	C71.45,94.1,59.24,88.03,47.1,81.84c-2.92-1.49-4.05-1.34-3.97,2.32C43.31,92.48,43.19,100.8,43.19,109.11z M137.03,109.72
	c0-8.31-0.13-16.63,0.06-24.94c0.09-3.81-0.67-4.71-4.34-2.79c-10.01,5.23-19.93,10.78-30.38,15.01c-7.83,3.17-10.5,7.85-9.3,15.83
	c0.37,2.49,0.66,4.21,3.2,5.45c12.4,6.04,24.73,12.22,37.01,18.51c3.38,1.73,3.85,0.52,3.8-2.62
	C136.94,126.02,137.03,117.87,137.03,109.72z M87.04,143.9c0-5.49-0.1-10.99,0.04-16.48c0.08-3.09-0.99-3.35-3.47-2.09
	c-11.13,5.63-22.29,11.21-33.47,16.75c-2.25,1.11-2.43,1.87-0.05,3.06c11.33,5.61,22.64,11.26,33.92,16.96
	c2.69,1.36,3.08,0.11,3.05-2.22C86.99,154.55,87.04,149.22,87.04,143.9z M93.18,143.69c0,5.49,0.04,10.99-0.02,16.48
	c-0.02,2.23,0.53,3.15,2.86,1.98c11.45-5.75,22.91-11.47,34.39-17.16c2.24-1.11,1.7-1.9-0.14-2.81
	c-11.32-5.63-22.64-11.28-33.93-16.97c-2.34-1.18-3.25-0.74-3.2,2C93.26,132.7,93.18,138.2,93.18,143.69z M87.04,75.13
	c0-5.33-0.08-10.66,0.03-15.99c0.06-2.77-0.26-4.19-3.52-2.53c-10.96,5.61-22,11.07-33.04,16.53c-2.34,1.16-2.85,2.03-0.11,3.39
	C61.44,82,72.47,87.49,83.44,93.09c3.05,1.55,3.71,0.5,3.64-2.47C86.95,85.46,87.04,80.3,87.04,75.13z M93.19,74.37
	c0,5.66,0.03,11.32-0.01,16.98c-0.02,2.17,0.53,3.21,2.89,2.03c11.3-5.68,22.61-11.34,33.94-16.95c2.44-1.21,2.05-2.09-0.07-3.15
	c-11.17-5.56-22.35-11.11-33.48-16.75c-2.92-1.48-3.35-0.25-3.3,2.36C93.25,64.04,93.18,69.21,93.19,74.37z"/>
</svg>
