<?xml version="1.0" encoding="utf-8"?>
<!-- Generator: Adobe Illustrator 23.0.1, SVG Export Plug-In . SVG Version: 6.00 Build 0)  -->
<svg version="1.1" id="Layer_1" xmlns="http://www.w3.org/2000/svg" xmlns:xlink="http://www.w3.org/1999/xlink" x="0px" y="0px"
	 viewBox="0 0 180 148" style="enable-background:new 0 0 180 148;" xml:space="preserve">
<style type="text/css">
	.st0{fill:#686868;}
	.st1{fill:#565656;}
	.st2{fill:#515151;}
	.st3{fill:#4C4C4C;}
	.st4{fill:#4B4B4B;}
	.st5{fill:#4F4F4F;}
	.st6{fill:#ADADAD;}
	.st7{fill:#A9A9A9;}
	.st8{fill:#AFAFAF;}
	.st9{fill:#A6A6A6;}
	.st10{fill:#545454;}
	.st11{fill:#B2B2B2;}
	.st12{fill:#ABABAB;}
	.st13{fill:#4D4D4D;}
	.st14{fill:#505050;}
	.st15{fill:#ACACAC;}
</style>
<path class="st0" d="M93.4,70.6c0-4.7,0-9.4,0.1-13.9c3-2.9,6.8-0.7,10.2-1.4c0.6-0.1,1.2,0,1.8,0c-0.4,0-0.7,0.1-1.1,0
	c-0.7-0.2,0.2,0.1-0.6,0c-3.4-0.6-7.1,1.6-10.2-1.3c0-3.5,0.2-7,0.1-10.6c-0.2-4.6,1.7-7.1,6.2-7.3c1.4,0,2.8,0.8,4.3,0.6
	c7.9,1.4,13.8,7,20.6,10.6c13.4,7,26.1,15.5,39.4,22.5c3.2,1.8,6.4,3.6,5.4,8.2c-6.2,6.4-14.6,9.4-22.1,13.8
	c-12,7.2-24.1,14.1-36.3,21c-2.5,1.4-4.8,2.5-7.4,0.8c-1.4-1-2.2-2.4-2.2-4.2c0.4,0.2,0,0.7,0.1,1c0.2,0.7,0.7,1.3,1,1.9
	c1,2.2,4.1,1.6,4.6,4.1c-1.4,1-2.8,2.2-4.3,3c-5.9,3.2-9.2,1.4-9.4-5.2c-0.2-7.7,0-15.3,0-23c3.7-3.5,8.3-1.3,12.5-1.8
	c0.4,0,0.6-0.1,1,0c0.4-0.7,0.2,0.7-0.1,0c0-0.1-0.5,0-0.8-0.1c-4.2-0.6-8.8,1.7-12.5-1.9c-0.1-4.7-0.1-9.4-0.2-14
	c1-2.2,3-1.2,4.6-1.4C96.4,71.8,94.4,72.6,93.4,70.6z"/>
<path class="st1" d="M93.7,87.5c5.8,0,11.6,0.1,17.4,0.2c1.2,0,2.8-0.1,3,1.3c0.2,2-1.7,2-3,2c-5.8,0.1-11.5,0.2-17.4,0.2
	c-4.2-0.1-8.3-0.2-12.5-0.5c-1,0-2.3,0-2.4-1.2c-0.2-1.6,1.2-1.8,2.4-1.9C85.3,87.6,89.5,87.6,93.7,87.5z"/>
<path class="st2" d="M61.9,70.7c5,0,10,0,14.9,0c1.1,0,2.8-0.2,2.5,1.6c-0.2,1.4-1.9,1.2-3,1.2c-10,0-19.9,0-29.9,0
	c-1.1,0-2.8,0.4-2.8-1.3c0-1.7,1.7-1.4,2.8-1.4C51.6,70.6,56.8,70.7,61.9,70.7z"/>
<path class="st3" d="M19,70c3.1,0,6.4,0,9.5,0c1,0,2.3,0,2.4,1.2c0.1,1.6-1.4,1.7-2.5,1.8c-6.5,0-13.1,0-19.5-0.1
	c-0.6,0-1.7-0.6-1.8-1.1c-0.2-1.2,1-1.6,1.8-1.7C12.3,69.9,15.6,70,19,70z"/>
<path class="st4" d="M33.7,87.8c3.2,0,6.4,0,9.6,0c1,0,2.2,0.4,1.9,1.6c-0.1,0.5-1.2,1.3-1.8,1.3c-6.4,0-12.7,0-19.1-0.1
	c-0.6,0-1.8-0.8-1.8-1.2c0-1.2,1.1-1.4,2.2-1.4C27.9,87.8,30.9,87.8,33.7,87.8L33.7,87.8z"/>
<path class="st5" d="M39.4,56.5c-4.8,0-9.6,0-14.4,0c-0.8,0-2.3,0.1-2.3-1.2c0-1.4,1.3-1.2,2.2-1.3c9.6,0,19.2,0,28.8,0
	c1,0,2.2,0.2,1.9,1.6c-0.1,0.5-1.2,1-1.9,1C49,56.5,44.2,56.5,39.4,56.5z"/>
<path class="st6" d="M68.3,122c3.4-0.5,7.7-1.1,12-1.7c1.9-0.2,4.6,0.4,4.6,1.8c0,2.6-2.3,0.2-3.5,0.5c-5.6,1-11.2,1.7-16.9,1.3
	c-1.1,0-2.6,2.3-3-0.1c-0.2-1.2,1.7-2,3.1-2.2C65.4,121.5,66.5,121.8,68.3,122z"/>
<path class="st3" d="M93.6,53.8c6,0.1,12,0.1,18,0.2c0.7,0,1.9,0.5,2,0.8c0.2,1.4-1.2,1.3-2,1.4c-6,0.1-12,0.2-18,0.2
	C92.2,55.7,92.2,54.7,93.6,53.8z"/>
<path class="st3" d="M61.6,87.6c1.9,0.5,5.3-0.8,5.2,1.3c-0.2,3-3.7,1.7-5.8,1.9c-1.7,0.1-4.7,0.6-4.6-1.2
	C56.5,86.5,59.8,88.4,61.6,87.6z"/>
<path class="st7" d="M25.9,15.4c-1,1.9-2.4,3.4-4.1,3.2c-1.7-0.1-3.7-1.2-3.4-3.4c0.2-1.4,1.8-2.6,3.5-2.8
	C23.8,12.5,25,14,25.9,15.4z"/>
<path class="st8" d="M143.2,2.3c0.2,0.2,0.7,0.7,0.8,1.2c0.6,2.2-3.8,8.2-6.2,8.3c-0.6,0-1.2-0.1-1.6-0.5
	C135.8,10.9,142.1,2.3,143.2,2.3z"/>
<path class="st9" d="M76.4,143c-0.6,1.8-1.6,3.4-3.2,3.4c-1.9,0-3.6-1.3-3.5-3.2c0-1.6,1.7-2.8,3.4-2.9
	C74.9,140.1,75.5,141.9,76.4,143z"/>
<path class="st3" d="M93.4,70.6c3,0.1,5.9,0.2,8.8,0.4c0.7,0,1.8,0.1,1.8,1.1s-1,1.1-1.8,1.1c-3,0.1-5.9,0.2-8.8,0.4
	C92.4,72.5,92.2,71.5,93.4,70.6z"/>
<path class="st10" d="M74.1,56.8c-1.8-0.8-5,1-4.8-1.9c0.1-1.9,3.4-1.1,5.2-1c1.7,0.1,4.8-1.3,4.6,1.6
	C79.1,57.6,75.8,56.1,74.1,56.8z"/>
<path class="st11" d="M155.9,32.4c-0.5,1.2-1.3,1.9-2.8,1.6c-1.2-0.2-2.2-1.1-1.9-2.4c0.4-1.6,1.6-2.3,3-1.8
	C155.4,30,156.2,31,155.9,32.4z"/>
<path class="st11" d="M75.6,17.7c-1.2-0.1-2.4-0.6-2.3-2c0.1-1.3,1.2-2,2.4-2c1.3,0,2.3,0.6,2.3,2C77.9,17,76.8,17.5,75.6,17.7z"/>
<path class="st8" d="M133.1,132.8c-0.4,1.7-1.3,2.4-2.6,2.3c-1.2-0.1-2.4-0.7-2.2-2.2c0.1-1.3,1.2-1.9,2.5-1.9
	C132.3,131,132.9,131.8,133.1,132.8z"/>
<path class="st12" d="M3,53.2c1.3,0.1,2.5,0.6,2.5,2s-1.1,2-2.4,2c-1.1,0-2-0.7-2.2-1.7C0.8,54.1,1.7,53.4,3,53.2z"/>
<path class="st7" d="M37.1,112.4c0,1.2-0.7,1.9-1.8,1.9c-1.3,0.1-2.3-0.6-2.3-2c0-1.1,0.8-1.7,2-1.7C36.3,110.7,37,111.2,37.1,112.4
	z"/>
<path class="st13" d="M174.3,66.4C153.2,54.1,132.1,42,111,30.2c-6.4-3.6-10-1.4-11,5.9c0.5,2.4-1.3,5.9,1.8,6.7
	c2,0.5,1.4-2.6,1.8-4.2l0,0l0,0c-0.1-8,1-8.6,8-4.7c19.2,10.9,38.4,21.9,57.4,33c2.3,1.3,5.9,2,5.9,5.3c0,3.6-3.7,4.2-6.2,5.6l0,0
	c-17.4,10.2-34.8,20.4-52.3,30.3c-3,1.8-6,4.9-9.7,4.2c-4.9-1.1-2.4-6-3.4-9.1c-0.2-1-0.6-2-1.8-2c-1,0-1.2,1-1.4,1.7
	c-2.2,6.4,0.7,11.9,7.3,13.8c22.9-12.2,45.2-25.4,67.4-38.7C179.8,74.6,179.5,69.5,174.3,66.4z"/>
<path class="st14" d="M121.9,73.2c-1.7-0.4-4.6,0.5-4.6-1.7c0-2.8,3-1.8,4.8-1.8s4.9-0.8,4.8,1.8C126.8,73.9,123.7,72.8,121.9,73.2z
	"/>
<path class="st6" d="M47.6,27.4c-3.8-0.7-2.4,3.6-3.6,5.3c-0.2,2.3-0.2,4.3,2.4,3.8c2.9-0.6,7.4-0.6,7.8-3.2
	C54.5,30.5,50.5,28,47.6,27.4z M47.8,34c-1,0-1.2-0.8-1-1.7c0.4-1,0.8-1.8,2-1.6c1,0.1,1.8,0.7,1.8,1.9C50,33.9,48.8,34.1,47.8,34z"
	/>
<path class="st15" d="M160.4,116.4c-3-0.5-4.4,1.8-4.7,4.9c-0.2,3.8,3.1,4.7,5.8,4.7c2.6,0,5.2-1.9,5.2-4.8
	C166.6,118.1,164.4,116.3,160.4,116.4z M160.8,123.8c-1.4-0.1-2.9-0.7-2.9-2.4c0-2,1.3-2.6,3.1-2.5c1.4,0.1,2.9,0.7,2.9,2.3
	C163.9,123,162.6,123.9,160.8,123.8z"/>
</svg>
