<?xml version="1.0" encoding="utf-8"?>
<!-- Generator: Adobe Illustrator 23.0.1, SVG Export Plug-In . SVG Version: 6.00 Build 0)  -->
<svg version="1.1" id="Layer_1" xmlns="http://www.w3.org/2000/svg" xmlns:xlink="http://www.w3.org/1999/xlink" x="0px" y="0px"
	 viewBox="0 0 180 180" style="enable-background:new 0 0 180 180;" xml:space="preserve">
<style type="text/css">
	.st0{fill:#474747;}
</style>
<path class="st0" d="M0,27c2.65-9.4,9.05-12.19,18.48-12.13c47.96,0.3,95.93,0.14,143.89,0.14c12.09,0,16.58,4.5,16.59,16.58
	c0.01,29.64,0.01,59.29,0,88.93c-0.01,11-4.79,15.81-15.84,15.84c-15.32,0.05-30.64,0-45.96,0.03c-1.94,0-3.87,0.19-6.74,0.34
	c1.24,4.25,2.21,7.88,3.42,11.42c0.25,0.74,1.34,1.38,2.18,1.71c5.15,2.02,6.45,4.84,5.2,11.41c-0.86,4.48-4.22,4.46-7.67,4.45
	c-15.82-0.02-31.64-0.04-47.46,0.01c-3.83,0.01-7.04-0.54-7.63-5.19c-0.86-6.84,0.18-8.91,5.09-10.66c1.06-0.38,2.32-1.35,2.68-2.34
	c1.17-3.25,1.96-6.63,3.09-10.64c-2.43-0.21-4.33-0.51-6.23-0.52c-14.66-0.04-29.32-0.36-43.96,0.1C9.9,136.79,3.14,134.22,0,125
	C0,92.33,0,59.67,0,27z M90.02,120.85c22.83,0,45.65-0.08,68.48,0.08c4.14,0.03,5.88-0.81,5.85-5.46
	c-0.21-26.49-0.18-52.98-0.02-79.47c0.03-4.12-1.18-5.4-5.35-5.38c-46.15,0.13-92.3,0.13-138.45,0c-4.17-0.01-5.39,1.27-5.37,5.4
	c0.16,26.32,0.18,52.65-0.01,78.97c-0.03,4.55,1.26,6.01,5.9,5.97C44.03,120.74,67.03,120.86,90.02,120.85z M69.28,149.39
	c14.18,0,27.46,0,41.32,0c-1.03-3.68-1.5-6.86-2.85-9.62c-0.73-1.5-2.92-3.18-4.51-3.23c-8.96-0.31-17.95-0.23-26.92-0.05
	c-1.36,0.03-3.45,1.03-3.89,2.11C71.07,141.92,70.36,145.5,69.28,149.39z M90.24,153.12c-7.97,0-15.94,0.11-23.91-0.05
	c-3.47-0.07-4.63,1.24-4.63,4.67c0,3.4,1.06,4.7,4.58,4.67c15.77-0.14,31.55-0.13,47.32,0c3.46,0.03,4.71-1.17,4.68-4.62
	c-0.02-3.36-1.12-4.8-4.63-4.72C105.85,153.23,98.04,153.11,90.24,153.12z"/>
<path class="st0" d="M108.04,108.38c5.58,0,11.16,0,16.74,0c0.02,0.6,0.03,1.2,0.05,1.8c-1.47,0.3-2.93,0.84-4.4,0.85
	c-10.49,0.05-20.98,0.27-31.46-0.09c-17.49-0.6-31.45-12.97-33.97-29.6c-2.59-17.08,6.75-32.95,22.88-38.87
	c15.99-5.87,34.3,0.91,42.62,15.78c8.51,15.2,4.78,34.4-8.74,45.02c-1.39,1.09-2.77,2.2-4.16,3.3
	C107.74,107.17,107.89,107.78,108.04,108.38z M57.84,75.89c0.09,17.72,14.74,32.22,32.29,31.95c17.51-0.27,31.68-14.62,31.7-32.1
	c0.02-17.76-14.35-32.14-32.1-32.11C71.98,43.66,57.75,58.05,57.84,75.89z"/>
<path class="st0" d="M118.6,75.51c0.06,16-12.79,28.98-28.73,29.01C73.9,104.55,61.01,91.67,61,75.68
	c-0.01-16,12.88-28.78,28.94-28.69C105.8,47.07,118.54,59.75,118.6,75.51z M115.25,75.52c-0.05-14.02-11.4-25.46-25.36-25.54
	C75.91,49.91,64.08,61.77,64.15,75.8c0.07,13.87,11.63,25.42,25.51,25.5C103.82,101.37,115.3,89.81,115.25,75.52z"/>
<path class="st0" d="M98.2,61.13c0.05,4.64-3.87,8.65-8.44,8.62c-4.48-0.03-8.58-4.21-8.51-8.66c0.08-4.4,3.82-8.11,8.3-8.21
	C94.42,52.77,98.15,56.32,98.2,61.13z M88.62,67.1c0.73,0.01,1.46,0.02,2.19,0.03c1.4-1.92,3.66-3.7,4-5.79
	c0.52-3.22-1.95-5.78-5.12-5.09c-1.96,0.42-4.53,3.1-4.74,5C84.76,63.05,87.29,65.14,88.62,67.1z"/>
<path class="st0" d="M89.76,81.83c4.8-0.01,8.5,3.71,8.45,8.49c-0.05,4.65-4.07,8.56-8.64,8.41c-4.31-0.14-8.22-4.08-8.31-8.36
	C81.16,85.81,85.12,81.84,89.76,81.83z M95.8,91.29c0-0.74,0.01-1.48,0.01-2.23c-1.96-1.35-3.79-3.52-5.91-3.85
	c-3.28-0.51-5.73,2.06-5.03,5.17c0.44,1.93,3.2,4.44,5.11,4.62C91.79,95.17,93.85,92.64,95.8,91.29z"/>
<path class="st0" d="M75.29,84.01c-4.9,0-8.4-3.56-8.32-8.48c0.07-4.61,3.57-8.17,8.12-8.28c4.74-0.12,8.6,3.6,8.66,8.33
	C83.82,80.32,80.12,84.01,75.29,84.01z M81.23,76.86c0-0.75,0.01-1.49,0.01-2.24c-1.92-1.37-3.7-3.57-5.79-3.91
	c-3.25-0.53-5.7,2-5.01,5.11c0.43,1.94,3.11,4.47,4.99,4.67C77.21,80.7,79.28,78.19,81.23,76.86z"/>
<path class="st0" d="M112.64,75.68c0,4.68-3.46,8.22-8.14,8.33c-4.95,0.11-8.59-3.43-8.58-8.35c0.01-4.65,3.51-8.28,8.1-8.42
	C108.83,67.1,112.64,70.84,112.64,75.68z M110.15,77.06c0.03-0.75,0.06-1.5,0.09-2.24c-1.87-1.42-3.58-3.66-5.65-4.08
	c-3.25-0.65-5.75,1.82-5.18,4.94c0.36,1.94,2.96,4.55,4.84,4.82C106.02,80.74,108.17,78.31,110.15,77.06z"/>
</svg>
