<?xml version="1.0" encoding="utf-8"?>
<!-- Generator: Adobe Illustrator 19.2.0, SVG Export Plug-In . SVG Version: 6.00 Build 0)  -->
<svg version="1.1" id="Layer_1" xmlns="http://www.w3.org/2000/svg" xmlns:xlink="http://www.w3.org/1999/xlink" x="0px" y="0px"
	 viewBox="0 0 683.4 619.7" style="enable-background:new 0 0 683.4 619.7;" xml:space="preserve">
<style type="text/css">
	.st0{fill:#4F4F4F;}
	.st1{fill:#A09F9F;}
	.st2{fill:#686868;}
	.st3{fill:none;stroke:#4F4F4F;stroke-width:13;stroke-linecap:round;stroke-linejoin:round;stroke-miterlimit:10;}
	.st4{fill:none;stroke:#4F4F4F;stroke-width:10.4561;stroke-miterlimit:10;}
	.st5{fill:none;stroke:#4F4F4F;stroke-width:9.2943;stroke-miterlimit:10;}
</style>
<path class="st0" d="M683.4,590.3c-23-26.8-41.9-48.9-63.4-73.9c-1.7,11.8-2.7,18.6-4,27.5c-19.3-9.5-37-19.1-55.5-27
	c-12.7-5.5-17.4-12.9-17.3-27.3c0.8-75,0-150,0.7-225c0.1-14.2-4.8-21.6-17.3-27.7c-53.1-25.8-105.8-52.3-158.4-79.1
	c-6-3.1-14.1-9.3-14.6-14.6c-1.7-19.9-0.7-40.1-0.7-62.3c9.4,3,16.3,5.3,26.7,8.6C366.8,59.3,355.2,31.8,341.8,0
	c-13.5,31.9-25.1,59.4-37.8,89.4c10.2-3.1,17.2-5.3,26.6-8.2c0,18.9-1,35.9,0.3,52.8c1,13.1-4.6,19.1-15.6,24.5
	c-53,25.9-105.5,52.9-158.6,78.7c-12.7,6.1-17.2,13.8-17.1,27.8c0.6,75.6,0.5,151.3,0,226.9c0,6.6-2.5,16.4-7.1,19.1
	c-20.5,12-42.2,22-64.4,33.1c-1.9-9.5-3.4-16.6-5.4-26.7C41.5,542,22.5,564.3,0,590.6c35.4-2.3,64.7-4.2,96.5-6.3
	c-7.3-7.9-12.3-13.3-18.4-19.9c20.5-10.3,40.1-19.3,58.8-29.8c10-5.6,17.9-5.3,28.1-0.1c53.1,27.2,106.8,53.3,159.9,80.5
	c12,6.2,21.9,6,33.9-0.1c53.1-27.2,106.6-53.8,160.1-80c6.1-3,15.2-5.3,20.7-2.9c22,9.5,43.1,21,65.8,32.3
	c-6.1,6.6-11.1,12-18.5,20.1C619.9,586.5,649.1,588.3,683.4,590.3z M354.6,176.8c50,24.9,99,49.4,152.4,76
	c-52.3,26.2-101,50.6-152.4,76.3C354.6,277.3,354.6,228.4,354.6,176.8z M329.7,176.4c0,51.7,0,100.3,0,153
	c-51.4-25.7-100.7-50.3-153.3-76.6C229.5,226.4,278.6,201.9,329.7,176.4z M162.7,495.6c0-75.6,0-147.9,0-223.1c7,3.1,12.6,5.3,18,8
	c44.8,22.4,89.3,45.4,134.6,66.9c10.8,5.1,13.7,11.7,15.3,21.4v29c-3.7,15-14.7,25.1-34,32.9c-38.7,15.7-75.1,36.8-112.6,55.4
	C177.9,489.1,171.6,491.6,162.7,495.6z M329.3,591.5c-50.9-25.4-100.2-50-152.8-76.3c52.5-26.2,101.5-50.7,152.8-76.3
	C329.3,490.5,329.3,539.3,329.3,591.5z M353.8,591.6c0-51.9,0-100.4,0-152.9c51,25.4,100.2,49.9,153.4,76.4
	C453.8,541.8,404.9,566.2,353.8,591.6z M520.3,494.8c-6.1-2.5-11.3-4.2-16.1-6.6c-45.4-22.6-90.6-45.7-136.3-67.7
	c-8.7-4.2-12.3-9.3-14.3-17v-35.3c4.7-14.5,16.6-24.1,35.5-31.8c38.1-15.5,74-36.2,110.9-54.5c6.1-3,12.4-5.6,20.3-9.2
	C520.3,347.4,520.3,420,520.3,494.8z"/>
</svg>
