<?xml version="1.0" encoding="utf-8"?>
<!-- Generator: Adobe Illustrator 19.2.0, SVG Export Plug-In . SVG Version: 6.00 Build 0)  -->
<svg version="1.1" id="Layer_1" xmlns="http://www.w3.org/2000/svg" xmlns:xlink="http://www.w3.org/1999/xlink" x="0px" y="0px"
	 viewBox="0 0 466.5 347.6" style="enable-background:new 0 0 466.5 347.6;" xml:space="preserve">
<style type="text/css">
	.st0{fill:#4F4F4F;}
	.st1{fill:#A09F9F;}
	.st2{fill:#686868;}
	.st3{fill:none;stroke:#4F4F4F;stroke-width:13;stroke-linecap:round;stroke-linejoin:round;stroke-miterlimit:10;}
	.st4{fill:none;stroke:#4F4F4F;stroke-width:10.4561;stroke-miterlimit:10;}
	.st5{fill:none;stroke:#4F4F4F;stroke-width:9.2943;stroke-miterlimit:10;}
</style>
<g>
	<path class="st0" d="M84.8,347.6c-22-7.8-33.4-26.7-45.4-44.4C-21.8,212.9-10.6,88.6,65.3,12C77.8-0.6,92.9-2.7,105.2,6.3
		c14.6,10.8,15.9,30.2,2.2,44.7c-21.4,22.5-37,48.2-44.4,78.3c-14.8,60.3-1.6,114.4,39.1,161.2c22.4,25.8,19.7,42.9-10.4,57
		C89.4,347.6,87.1,347.6,84.8,347.6z"/>
	<path class="st0" d="M368.7,174c-1.1,39.8-16.2,73-45.1,100c-13.4,12.6-30.8,12.7-42.4,0.1c-11-11.9-9.7-29.4,2.9-41.6
		c31.6-30.6,35.8-73.4,10.3-106.8c-3-3.9-6.6-7.3-10-10.9c-11.1-11.8-11.7-28.9-1.5-40c11.1-12,28-13.2,40.8-1.8
		c21.6,19.2,35.4,43.3,41.2,71.7C367,154.3,367.5,164.2,368.7,174z"/>
	<path class="st0" d="M96.8,173.4c1.2-38.6,15.1-71.6,43.1-98.4c13.3-12.7,29.6-13,41.6-1.2c11.5,11.4,11,29-1.2,41.7
		c-34.9,36.4-35,80.1-0.3,116.3c12.1,12.7,12.8,28.9,1.6,40.7c-11.3,11.9-28.5,12.1-41.8,0.5C114,250.4,96.6,210.1,96.8,173.4z"/>
	<path class="st0" d="M267.2,173.4c0.1,19.5-14.8,34.7-34.3,34.8c-19.5,0.1-34.7-14.8-34.8-34.2c-0.2-19.5,14.8-34.7,34.3-34.9
		C251.8,139,267,154,267.2,173.4z"/>
	<path class="st0" d="M381.7,346.8c22-7.8,33.4-26.7,45.4-44.4c61.2-90.3,49.9-214.6-26-291.2c-12.5-12.6-27.5-14.7-39.8-5.6
		c-14.6,10.8-15.9,30.2-2.2,44.7c21.4,22.5,37,48.2,44.4,78.3c14.8,60.3,1.6,114.4-39.1,161.2c-22.4,25.8-19.7,42.9,10.4,57
		C377.1,346.8,379.4,346.8,381.7,346.8z"/>
</g>
</svg>
