<?xml version="1.0" encoding="utf-8"?>
<!-- Generator: Adobe Illustrator 19.2.0, SVG Export Plug-In . SVG Version: 6.00 Build 0)  -->
<svg version="1.1" id="Layer_1" xmlns="http://www.w3.org/2000/svg" xmlns:xlink="http://www.w3.org/1999/xlink" x="0px" y="0px"
	 viewBox="0 0 550.4 464.8" style="enable-background:new 0 0 550.4 464.8;" xml:space="preserve">
<style type="text/css">
	.st0{fill:#4F4F4F;}
	.st1{fill:#A09F9F;}
	.st2{fill:#686868;}
	.st3{fill:none;stroke:#4F4F4F;stroke-width:13;stroke-linecap:round;stroke-linejoin:round;stroke-miterlimit:10;}
	.st4{fill:none;stroke:#4F4F4F;stroke-width:10.4561;stroke-miterlimit:10;}
	.st5{fill:none;stroke:#4F4F4F;stroke-width:9.2943;stroke-miterlimit:10;}
</style>
<g>
	<path class="st4" d="M354.4,459.6H196c-7.3,0-13.2-5.9-13.2-13.2v-12.5c0-7.3,5.9-13.2,13.2-13.2h158.4c7.3,0,13.2,5.9,13.2,13.2
		v12.5C367.6,453.7,361.7,459.6,354.4,459.6z"/>
	<polygon class="st4" points="344.2,420.8 206.2,420.8 216.1,347.1 334.3,347.1 	"/>
	<path class="st0" d="M497.7,0h-445C23.6,0,0,23.6,0,52.7v262.1c0,29.1,23.6,52.7,52.7,52.7h445c29.1,0,52.7-23.6,52.7-52.7V52.7
		C550.4,23.6,526.8,0,497.7,0z M507.5,321.7H42.9V45.9h464.6V321.7z"/>
	<path class="st5" d="M383.6,183.8c0,57.4-44.6,104.4-101,108.2c-2.5,0.2-4.9,0.3-7.4,0.3c-59.9,0-108.5-48.6-108.5-108.5
		S215.3,75.3,275.2,75.3S383.6,123.9,383.6,183.8z"/>
	<circle class="st5" cx="275.2" cy="183.8" r="86.2"/>
	<g>
		<g>
			<circle class="st5" cx="230.3" cy="183.8" r="23.5"/>
			<circle class="st5" cx="320.1" cy="183.8" r="23.5"/>
		</g>
		<g>
			<circle class="st5" cx="275.2" cy="228.6" r="23.5"/>
			<circle class="st5" cx="275.2" cy="138.9" r="23.5"/>
		</g>
	</g>
	<line class="st5" x1="381.6" y1="290.9" x2="292.2" y2="290.9"/>
</g>
</svg>
