<?xml version="1.0" encoding="utf-8"?>
<!-- Generator: Adobe Illustrator 19.2.0, SVG Export Plug-In . SVG Version: 6.00 Build 0)  -->
<svg version="1.1" id="Layer_1" xmlns="http://www.w3.org/2000/svg" xmlns:xlink="http://www.w3.org/1999/xlink" x="0px" y="0px"
	 viewBox="0 0 543.3 475.1" style="enable-background:new 0 0 543.3 475.1;" xml:space="preserve">
<style type="text/css">
	.st0{fill:#4F4F4F;}
	.st1{fill:#A09F9F;}
	.st2{fill:#686868;}
	.st3{fill:none;stroke:#4F4F4F;stroke-width:13;stroke-linecap:round;stroke-linejoin:round;stroke-miterlimit:10;}
	.st4{fill:none;stroke:#4F4F4F;stroke-width:10.4561;stroke-miterlimit:10;}
	.st5{fill:none;stroke:#4F4F4F;stroke-width:9.2943;stroke-miterlimit:10;}
</style>
<path class="st0" d="M347.3,475.1c-95.8,0-191.6,0-287.3,0c-1.8-0.4-3.6-0.8-5.4-1.2c-11.5-2.4-21.9-7.2-30.7-14.9
	c-7.9-6.9-14.3-15-18.3-24.9c-3-7.4-5.2-14.9-5.2-22.9c0-48.3,0-96.5,0-144.8c0-2.4,0.5-4.9,0.9-7.3c1.2-7.8,4.1-15,8.1-21.8
	c4.1-7,9.3-13.1,15.7-18.1c3.1-2.4,6.4-4.7,9.7-7.1c-18.1-16.8-30-36.8-33.5-61.4c-3.5-24.6,0.5-48.1,14.2-68.8
	c24.9-37.6,60.6-54.3,105-46c47.2,8.9,73.8,39.9,83.1,86.7c-0.3-12.3,1.1-24.3,4.4-36c3.3-11.7,8.3-22.5,14.9-32.8
	c6.7-10.4,14.9-19.4,24.4-27.2c9.4-7.7,19.8-13.8,31-18.3c11.3-4.5,23-7.1,35.1-8.1c32.1-2.6,84.1,8.6,113.6,62.1
	c12.3,22.3,16.7,46.5,13.2,71.7c-5.1,37.4-24.6,65.7-56.3,86.2c7.4,6.8,13,14.3,17.2,23c4.1,8.7,6,17.9,6.1,27.8
	c5.8-3.9,11.1-7.4,16.3-10.9c28-18.6,56-37.3,84-55.9c0.8-0.5,1.8-1.1,2.7-1c3.3,0.5,6.7,0.8,9.8,2c11.9,4.4,19.4,12.7,22.1,25.2
	c0.4,1.8,0.8,3.6,1.1,5.4c0,69,0,138,0,207.1c-0.4,1.8-0.8,3.6-1.2,5.4c-2.7,11.8-9.7,19.9-20.9,24.4c-2.2,0.9-4.5,1.5-6.7,2.3
	c-2.2,0-4.4,0-6.6,0c-0.8-0.9-1.4-1.9-2.3-2.6c-3.8-3.2-7.8-6.3-11.6-9.5c-6.1-5.1-12.1-10.3-18.2-15.3c-7.2-6-14.5-11.9-21.7-17.9
	c-6.1-5.1-12.1-10.3-18.2-15.3c-6.4-5.4-12.9-10.7-19.3-16c-3-2.5-6.1-4.9-9.2-7.4c-0.3,0.1-0.6,0.2-0.9,0.4
	c0,8.6,0.3,17.3-0.1,25.9c-0.3,7.6-3.3,14.7-6.7,21.4c-3.5,6.9-8.4,13-14.1,18.3c-8.3,7.8-17.9,13-28.8,15.9
	C353.7,473.6,350.5,474.3,347.3,475.1z M203.6,440.8c44.6,0,89.1-0.1,133.7,0.1c7.3,0,14.1-1.4,20.2-5.4
	c9.4-6.2,15.2-14.9,15.3-26.2c0.3-46.5,0.1-93,0.1-139.5c0-7.4-2.9-13.8-7.5-19.4c-7.4-9-17.3-12.8-28.7-12.8c-88.7,0-177.3,0-266,0
	c-2.8,0-5.7,0.3-8.4,0.8c-7.8,1.4-14.3,5.2-19.5,11.1c-5,5.8-8.3,12.4-8.3,20.2c-0.1,45.4,0,90.8-0.1,136.2c0,7,1.4,13.4,5.1,19.2
	c6.4,9.8,15.4,15.7,27.1,15.8C112.2,441,157.9,440.8,203.6,440.8z M322.3,34.3c-47.1-0.4-83.2,38.1-84.7,80.9
	c-0.8,24.3,7.2,45.3,24.2,62.8c16.6,17.1,37.1,25.7,60.6,25.7c23.4,0,43.8-8.6,60.3-25.5c15.5-15.8,23.8-34.9,24.3-57
	C408.3,72.5,368.6,33.6,322.3,34.3z M101.8,203.3c38,0.3,67.4-30.6,67.7-66.4c0.4-39-30.3-68.4-66.9-68.7C64.3,68,36,98,34.4,132.7
	C32.5,173.1,66.2,204.1,101.8,203.3z M508.4,238.3c-6.6,4.4-12.8,8.4-19,12.5c-26.9,18-53.8,36-80.7,54c-0.8,0.5-1.6,1.8-1.6,2.7
	c-0.1,15.6-0.1,31.2,0,46.8c0,0.9,0.5,2,1.1,2.6c2.6,2.3,5.4,4.3,8,6.5c9.4,7.9,18.8,15.9,28.2,23.8c10.5,8.7,21.1,17.4,31.6,26.1
	c9.2,7.7,18.4,15.5,27.7,23.2c1.4,1.2,2.9,2.2,4.7,3.6C508.4,372.6,508.4,305.7,508.4,238.3z M238.4,203.2
	c-19.1-19.6-30.6-42.5-34.3-69.3c0,26.2-8.8,49.2-25.9,69.3C198.6,203.2,218.3,203.2,238.4,203.2z"/>
</svg>
