<?xml version="1.0" encoding="utf-8"?>
<!-- Generator: Adobe Illustrator 19.2.0, SVG Export Plug-In . SVG Version: 6.00 Build 0)  -->
<svg version="1.1" id="Layer_1" xmlns="http://www.w3.org/2000/svg" xmlns:xlink="http://www.w3.org/1999/xlink" x="0px" y="0px"
	 viewBox="0 0 489.8 711.5" style="enable-background:new 0 0 489.8 711.5;" xml:space="preserve">
<style type="text/css">
	.st0{fill:#4F4F4F;}
	.st1{fill:#A09F9F;}
	.st2{fill:#686868;}
	.st3{fill:none;stroke:#4F4F4F;stroke-width:13;stroke-linecap:round;stroke-linejoin:round;stroke-miterlimit:10;}
	.st4{fill:none;stroke:#4F4F4F;stroke-width:10.4561;stroke-miterlimit:10;}
	.st5{fill:none;stroke:#4F4F4F;stroke-width:9.2943;stroke-miterlimit:10;}
</style>
<g>
	<g>
		<path class="st0" d="M233,226.3L384.5,26.6c2.6-3.5,7.6-4.2,11.1-1.5l0.4,0.3c3.5,2.6,4.2,7.6,1.5,11.1L246,236.2
			c-2.6,3.5-7.6,4.2-11.1,1.5l-0.4-0.3C231,234.7,230.3,229.7,233,226.3z"/>
		<path class="st0" d="M256.8,226.3L105.3,26.6c-2.6-3.5-7.6-4.2-11.1-1.5l-0.4,0.3c-3.5,2.6-4.2,7.6-1.5,11.1l151.5,199.7
			c2.6,3.5,7.6,4.2,11.1,1.5l0.4-0.3C258.8,234.7,259.4,229.7,256.8,226.3z"/>
	</g>
	<path class="st0" d="M432.3,209.6H57.5C25.7,209.6,0,235.3,0,267.1v387c0,31.7,25.7,57.5,57.5,57.5h374.8
		c31.7,0,57.5-25.7,57.5-57.5v-387C489.8,235.3,464,209.6,432.3,209.6z M143.8,639.7c0,20.9-16.9,37.8-37.8,37.8h0
		c-20.9,0-37.8-16.9-37.8-37.8v0c0-20.9,16.9-37.8,37.8-37.8h0C126.9,601.9,143.8,618.8,143.8,639.7L143.8,639.7z M315.6,667.7
		H174.2v-41.4h141.3V667.7z M421.5,639.7c0,20.9-16.9,37.8-37.8,37.8h0c-20.9,0-37.8-16.9-37.8-37.8v0c0-20.9,16.9-37.8,37.8-37.8h0
		C404.6,601.9,421.5,618.8,421.5,639.7L421.5,639.7z M452.4,555.6c0,12.7-10.3,23-23,23H60.4c-12.7,0-23-10.3-23-23V270.9
		c0-12.7,10.3-23,23-23h369.1c12.7,0,23,10.3,23,23V555.6z"/>
	<g>
		<path class="st0" d="M104.8,70.7L104.8,70.7c-19.5,0-35.3-15.8-35.3-35.3v0C69.4,15.8,85.3,0,104.8,0h0
			c19.5,0,35.3,15.8,35.3,35.3v0C140.1,54.8,124.3,70.7,104.8,70.7z"/>
		<path class="st0" d="M385,70.7L385,70.7c-19.5,0-35.3-15.8-35.3-35.3v0C349.7,15.8,365.5,0,385,0h0c19.5,0,35.3,15.8,35.3,35.3v0
			C420.3,54.8,404.5,70.7,385,70.7z"/>
	</g>
	<path class="st0" d="M244.6,561.4c-40.6,0-81.2,0-121.8,0c-7.4,0-11.1-3.6-11.1-11.1c0-10.2,0-20.4,0-30.6c0-5.9,2-8.6,7.4-10.9
		c21.1-9,42.2-17.9,63.1-27.3c6.7-3,13-7.2,19.3-11.1c2.7-1.6,5-3.8,7.4-5.9c2.6-2.4,3.6-5.3,3.8-9c0.3-6.2-1.1-11.2-5.4-16.1
		c-7-8-11-17.7-14.2-27.8c-0.5-1.5-1.5-3-2.6-4.1c-7.9-7.3-9.5-18.7-3.9-27.9c1-1.7,1.6-3.8,1.6-5.8c0.2-9.8,0-19.6,0.2-29.4
		c0.5-26.1,15.8-43.9,41.5-48.2c14.4-2.4,28.8-2,42.7,3.3c17,6.5,26.5,19.4,28.3,37c1.3,12.4,0.6,25.1,1,37.6c0,1.7,0.6,3.7,1.6,5.2
		c5.7,9.1,4.1,21-3.9,28.1c-1,0.9-2,2.2-2.4,3.5c-3.9,12.4-9.6,23.8-18.5,33.5c-0.3,0.3-0.7,0.6-0.7,0.9c0,5.8-2.5,12.2,1.8,17.1
		c3.5,3.9,7.8,7.3,12.3,10.1c15.1,9.6,31.4,16.6,47.8,23.6c10.4,4.4,20.9,8.4,31.3,12.7c5,2,7,5,7.1,10.5c0,10.2,0,20.4,0,30.6
		c0,7.9-3.5,11.3-11.5,11.4C325.9,561.4,285.3,561.4,244.6,561.4C244.6,561.4,244.6,561.4,244.6,561.4z"/>
</g>
</svg>
