<?xml version="1.0"?>
<svg xmlns="http://www.w3.org/2000/svg" height="512px" viewBox="-78 0 1167 1167.5021" width="512px"><path d="m980.894531 298.929688c-79.773437-171.535157-247.074219-285.617188-435.902343-297.21875l-19.046876-1.710938-16.867187.425781c-58.242187 2.140625-115.339844 16.894531-167.316406 43.296875-138.203125 69.085938-225.292969 210.523438-224.785157 365.023438v72.433594l-113.953124 189.933593c-3.605469 6-3.699219 13.488281-.253907 19.597657 3.453125 6.097656 9.921875 9.863281 16.925781 9.863281h121.816407l-11.808594 175.359375c-9.039063 51.882812 25.148437 101.460937 76.863281 111.4375 1.28125.25 2.578125.371094 3.894532.371094.703124 0 1.40625-.039063 2.101562-.113282l118.421875-12.839844v173.261719c0 10.757813 8.710937 19.453125 19.449219 19.453125h466.933594c10.734374 0 19.453124-8.695312 19.453124-19.453125v-193.34375l152.042969-375.636719c33.410157-90.941406 30.558594-191.246093-7.96875-280.140624zm-28.382812 266.304687-153.171875 378.53125c-1.074219 2.777344-1.488282 5.769531-1.191406 8.726563 0 .40625-.238282.761718-.238282 1.160156v174.945312h-428.015625v-175.101562c0-.410156-.207031-.75-.226562-1.148438-.027344-.414062.167969-.875.117187-1.335937-.597656-1.851563-1.171875-3.71875-1.753906-5.582031-.84375-1.890626-1.992188-3.632813-3.386719-5.152344-.15625-.183594-.230469-.414063-.402343-.589844l-.242188-.148438c-4.03125-4.210937-9.761719-6.363281-15.566406-5.839843l-136.898438 14.816406c-30.210937-7.59375-49.167968-37.527344-43.136718-68.085937l13.421874-198.074219c.699219-10.726563-7.429687-19.984375-18.152343-20.691407-1.621094-.128906-109.546875 0-109.546875 0l99.046875-165.125c.167969-.410156.320312-.839843.445312-1.269531.554688-1.152343 1-2.378906 1.308594-3.636719.378906-1.273437.644531-2.574218.769531-3.898437 0-.4375.25-.832031.25-1.296875v-77.691406c-.523437-139.820313 78.242188-267.875 203.273438-330.480469 47.027344-23.867187 98.664062-37.226563 151.355468-39.160156h15.414063c180.625 5.144531 342.894531 111.753906 419.320313 275.484375 34.421874 79.539062 37.003906 169.253906 7.207031 250.644531zm0 0" fill="#484848"/><path d="m583.902344 97.46875c-171.917969 0-311.289063 139.363281-311.289063 311.277344 0 171.933594 139.371094 311.285156 311.289063 311.285156 171.929687 0 311.28125-139.351562 311.28125-311.285156-.195313-171.820313-139.445313-311.070313-311.28125-311.277344zm0 583.660156c-150.425782 0-272.375-121.941406-272.375-272.382812 0-150.421875 121.949218-272.367188 272.375-272.367188 150.429687 0 272.367187 121.945313 272.367187 272.367188-.160156 150.367187-122.007812 272.230468-272.367187 272.382812zm0 0" fill="#484848"/><path d="m583.902344 175.292969c-128.945313 0-233.46875 104.53125-233.46875 233.453125 0 128.941406 104.523437 233.46875 233.46875 233.46875 128.9375 0 233.464844-104.527344 233.464844-233.46875-.140626-128.863282-104.585938-233.308594-233.464844-233.453125zm0 428.011719c-107.449219 0-194.554688-87.105469-194.554688-194.558594 0-107.433594 87.105469-194.550782 194.554688-194.550782 107.445312 0 194.550781 87.117188 194.550781 194.550782-.117187 107.40625-87.152344 194.445312-194.550781 194.558594zm0 0" fill="#484848"/><path d="m583.902344 311.480469c21.488281 0 38.910156 17.417969 38.910156 38.90625 0 10.75 8.714844 19.453125 19.453125 19.453125 10.742187 0 19.453125-8.703125 19.453125-19.453125-.128906-35.375-24.105469-66.214844-58.363281-75.0625v-22.214844c0-10.742187-8.703125-19.457031-19.453125-19.457031-10.746094 0-19.453125 8.714844-19.453125 19.457031v22.214844c-37.902344 9.757812-62.625 46.203125-57.683594 85.019531 4.941406 38.828125 38.003906 67.914062 77.136719 67.867188 21.488281 0 38.910156 17.417968 38.910156 38.902343 0 21.5-17.421875 38.914063-38.910156 38.914063-21.488282 0-38.910156-17.414063-38.910156-38.914063 0-10.742187-8.710938-19.457031-19.460938-19.457031-10.738281 0-19.453125 8.714844-19.453125 19.457031.132813 35.386719 24.117187 66.222657 58.371094 75.070313v22.214844c0 10.753906 8.707031 19.445312 19.453125 19.445312 10.75 0 19.453125-8.691406 19.453125-19.445312v-22.214844c37.910156-9.757813 62.625-46.199219 57.695312-85.015625-4.941406-38.835938-38.007812-67.921875-77.148437-67.871094-21.488282 0-38.910156-17.410156-38.910156-38.910156 0-21.488281 17.421874-38.90625 38.910156-38.90625zm0 0" fill="#484848"/></svg>
