<?xml version="1.0" encoding="utf-8"?>
<!-- Generator: Adobe Illustrator 19.2.0, SVG Export Plug-In . SVG Version: 6.00 Build 0)  -->
<svg version="1.1" id="Layer_1" xmlns="http://www.w3.org/2000/svg" xmlns:xlink="http://www.w3.org/1999/xlink" x="0px" y="0px"
	 viewBox="0 0 284.3 460.9" style="enable-background:new 0 0 284.3 460.9;" xml:space="preserve">
<style type="text/css">
	.st0{fill:#4F4F4F;}
	.st1{fill:#A09F9F;}
	.st2{fill:#686868;}
	.st3{fill:none;stroke:#4F4F4F;stroke-width:13;stroke-linecap:round;stroke-linejoin:round;stroke-miterlimit:10;}
	.st4{fill:none;stroke:#4F4F4F;stroke-width:10.4561;stroke-miterlimit:10;}
	.st5{fill:none;stroke:#4F4F4F;stroke-width:9.2943;stroke-miterlimit:10;}
</style>
<path class="st0" d="M39.1,431.5c27.7,0,55.1,0,82.9,0c0.1-1.8,0.4-3.3,0.4-4.7c0-22.5-0.1-45,0.1-67.5c0-3.4-0.9-4.9-4.4-5.7
	c-52.9-11.9-90.6-59.3-93.5-111.9c-1.5-28.1-0.7-56.3-0.9-84.4c0-2,0-3.9,0-6.5c-6.3,0-12.2-0.3-17.9,0.1c-4.8,0.3-6-1.5-5.8-6
	c0.3-6.8,0.1-13.6,0.1-21c25.8,0,51.1,0,77,0c0-2.7,0-4.8,0-7c0.1-19-0.4-38,0.5-57C79.1,27.4,106.7,1.1,139.5,0
	c33.5-1.1,62.4,22.6,66.9,55c0.6,4.3,0.8,8.6,0.8,12.9c0.1,18.6,0,37.3,0,56.4c25.8,0,51.2,0,77.1,0c0,9.1,0,17.6,0,26.6
	c-6.9,0-13.6,0-21.2,0c0,2.4,0,4.3,0,6.2c0,21.8,0.2,43.7,0,65.5c-0.3,35.9-10.5,68.3-34.6,95.4c-17.9,20.1-40.3,32.4-66.9,36.9
	c-2.3,0.4-4.2,0.5-4.1,3.6c0.1,24,0,48,0,72.5c27.9,0,55.4,0,83.3,0c0,10.2,0,19.7,0,29.7c-67.1,0-134.2,0-201.6,0
	C39.1,451.4,39.1,441.9,39.1,431.5z M50.7,151.3c-0.1,1.6-0.3,2.8-0.3,3.9c0,25.8-0.3,51.7,0.1,77.5c0.4,22.4,7.3,42.9,21.1,60.7
	c34.1,44.2,94.6,47.8,131.5,12.3c22.6-21.7,32.2-48.9,33.1-79.4c0.7-23.5,0.1-47,0.1-70.5c0-1.4-0.2-2.9-0.3-4.2
	c-9.8,0-19.2,0-28.8,0c0,2.4,0,4.4,0,6.4c0,26.2,0.2,52.3,0,78.5c-0.3,41-38.2,71.3-78.3,62.9c-30.6-6.4-51.6-32.3-51.8-64.2
	c-0.1-25.8,0-51.7,0-77.5c0-2.1-0.2-4.2-0.3-6.4C67.9,151.3,59.6,151.3,50.7,151.3z"/>
</svg>
